<svg xmlns="http://www.w3.org/2000/svg" width="40" height="40" viewBox="0 0 40 40"><defs><style>.a{fill:#d00814;}</style></defs><g transform="translate(-1 -1)"><path class="a" d="M6.974,22.839a.8.8,0,0,0,.8-.8A14.277,14.277,0,0,1,22.035,7.779a.8.8,0,0,0,0-1.6A15.879,15.879,0,0,0,6.174,22.039.8.8,0,0,0,6.974,22.839Z" transform="translate(-1.035 -1.036)"/><path class="a" d="M40.861,25a.8.8,0,0,0-.8.8A14.277,14.277,0,0,1,25.8,40.066a.8.8,0,0,0,0,1.6A15.879,15.879,0,0,0,41.661,25.8.8.8,0,0,0,40.861,25Z" transform="translate(-4.8 -4.801)"/><path class="a" d="M41.639,12.4a5.3,5.3,0,0,1-8.508,0,9.081,9.081,0,0,0-4.821,8.008.792.792,0,0,0,.8.8H45.662a.8.8,0,0,0,.8-.8A9.078,9.078,0,0,0,41.639,12.4Z" transform="translate(-5.462 -2.28)"/><path class="a" d="M38.542,10.656c2.5,0,4.44-2.808,4.44-5.216a4.436,4.436,0,1,0-8.872,0C34.11,7.848,36.046,10.656,38.542,10.656Z" transform="translate(-6.622)"/><path class="a" d="M14.337,39.99a5.624,5.624,0,0,1-4.257,2.136A5.624,5.624,0,0,1,5.823,39.99,9.078,9.078,0,0,0,1,48a.8.8,0,0,0,.8.8H18.36a.8.8,0,0,0,.8-.8A9.078,9.078,0,0,0,14.337,39.99Z" transform="translate(0 -7.798)"/><path class="a" d="M6.8,33.032c0,2.408,1.936,5.216,4.44,5.216s4.44-2.808,4.44-5.216a4.44,4.44,0,0,0-8.88,0Z" transform="translate(-1.16 -5.52)"/></g></svg>