<svg xmlns="http://www.w3.org/2000/svg" width="16" height="16.005" viewBox="0 0 16 16.005"><defs><style>.a{fill:#1f8cd9;}</style></defs><g transform="translate(0 0.003)"><path class="a" d="M68.457,62.868v3.644a5.608,5.608,0,0,1-.024.727c.012-.093.024-.185.037-.28a2.768,2.768,0,0,1-.185.678c.035-.084.07-.168.1-.25a2.754,2.754,0,0,1-.346.593l.164-.212a2.741,2.741,0,0,1-.483.483l.212-.164a2.725,2.725,0,0,1-.593.346l.25-.1a2.747,2.747,0,0,1-.678.185l.28-.037a8.769,8.769,0,0,1-1.114.024H59.232c-.318,0-.637,0-.953,0a2.8,2.8,0,0,1-.364-.024l.28.037a2.768,2.768,0,0,1-.678-.185l.25.1a2.754,2.754,0,0,1-.593-.346l.212.164a2.741,2.741,0,0,1-.483-.483l.164.212a2.724,2.724,0,0,1-.346-.593c.035.084.07.168.1.25a2.747,2.747,0,0,1-.185-.678c.012.093.024.185.037.28a8.768,8.768,0,0,1-.024-1.114V59.278c0-.318,0-.637,0-.953a2.8,2.8,0,0,1,.024-.364c-.012.093-.024.185-.037.28a2.768,2.768,0,0,1,.185-.678c-.035.084-.07.168-.1.25a2.754,2.754,0,0,1,.346-.593l-.164.212a2.741,2.741,0,0,1,.483-.483l-.212.164a2.724,2.724,0,0,1,.593-.346l-.25.1a2.747,2.747,0,0,1,.678-.185l-.28.037a4.858,4.858,0,0,1,.638-.024h3.733a1.051,1.051,0,0,0,1.049-1.049,1.059,1.059,0,0,0-.308-.741,1.088,1.088,0,0,0-.741-.308H58.3a3.854,3.854,0,0,0-1.722.416,3.719,3.719,0,0,0-2.016,3.307c0,.245,0,.49,0,.736v7.818A3.721,3.721,0,0,0,58.281,70.6c.271,0,.542,0,.813,0h7.554a3.893,3.893,0,0,0,2.189-.588,3.7,3.7,0,0,0,1.327-1.481,3.625,3.625,0,0,0,.322-.965,4.626,4.626,0,0,0,.068-.712V62.87a1.051,1.051,0,0,0-1.049-1.049,1.059,1.059,0,0,0-.741.308,1.078,1.078,0,0,0-.308.74Z" transform="translate(-54.556 -54.6)"/></g><g transform="translate(10.018 0.001)"><path class="a" d="M628.517,56.6H632.4a1.051,1.051,0,0,0,1.049-1.049,1.059,1.059,0,0,0-.308-.741,1.088,1.088,0,0,0-.741-.308h-3.882a1.051,1.051,0,0,0-1.049,1.049,1.058,1.058,0,0,0,.308.741,1.085,1.085,0,0,0,.741.308Z" transform="translate(-627.468 -54.5)"/></g><g transform="translate(13.901 0)"><path class="a" d="M851.6,59.4V55.517a1.051,1.051,0,0,0-1.049-1.049,1.059,1.059,0,0,0-.741.308,1.088,1.088,0,0,0-.308.741V59.4a1.051,1.051,0,0,0,1.049,1.049,1.059,1.059,0,0,0,.741-.308,1.085,1.085,0,0,0,.308-.741Z" transform="translate(-849.5 -54.468)"/></g><g transform="translate(6.964)"><path class="a" d="M454.591,63.185l.694-.694,1.654-1.654,2-2,1.735-1.735c.28-.28.565-.558.841-.841l.012-.012a1.08,1.08,0,0,0,.308-.741,1.051,1.051,0,0,0-1.049-1.049,1.092,1.092,0,0,0-.741.308l-.694.694L457.7,57.113l-2,2-1.735,1.735c-.28.28-.565.558-.841.841l-.012.012a1.08,1.08,0,0,0-.308.741,1.051,1.051,0,0,0,1.049,1.049,1.088,1.088,0,0,0,.741-.308Z" transform="translate(-452.8 -54.456)"/></g></svg>