<svg xmlns="http://www.w3.org/2000/svg" width="40" height="36.622" viewBox="0 0 40 36.622"><defs><style>.a{fill:#187b41;}</style></defs><path class="a" d="M37.086,4.68H24.726a3.418,3.418,0,0,0-3.418,3.414v.84H6.718a3.1,3.1,0,0,0-3.1,3.1V32.858H1.51A1.01,1.01,0,0,0,.5,33.868v3.6A3.838,3.838,0,0,0,4.338,41.3H36.258a3.838,3.838,0,0,0,3.834-3.834v-3.6a1.01,1.01,0,0,0-1.01-1.01H36.973V21.234h.113A3.418,3.418,0,0,0,40.5,17.819V8.094A3.418,3.418,0,0,0,37.086,4.68ZM5.643,12.034a1.079,1.079,0,0,1,1.079-1.079H21.308v7.414a2.869,2.869,0,0,0,2.865,2.865h1.677V24.3a1.01,1.01,0,0,0,1.725.715l3.786-3.778h3.6V32.858H24.229a1.01,1.01,0,0,0-1.01,1.01v1.014H17.377V33.868a1.01,1.01,0,0,0-1.01-1.01H5.643ZM38.076,34.878v2.59a1.818,1.818,0,0,1-1.818,1.814H4.338A1.818,1.818,0,0,1,2.52,37.464V34.878H15.357V35A1.9,1.9,0,0,0,17.268,36.9h6.061A1.9,1.9,0,0,0,25.223,35v-.125Zm.4-17.055a1.394,1.394,0,0,1-1.394,1.394H30.94a1.01,1.01,0,0,0-.715.295L27.874,21.86V20.223a1.01,1.01,0,0,0-1.01-1.01H24.177a.844.844,0,0,1-.848-.844V8.094A1.394,1.394,0,0,1,24.722,6.7H37.086A1.394,1.394,0,0,1,38.48,8.094Z" transform="translate(-0.5 -4.68)"/></svg>