<svg xmlns="http://www.w3.org/2000/svg" width="20" height="20" viewBox="0 0 20 20"><defs><style>.a{fill:#d00814;}</style></defs><path class="a" d="M20-12A10,10,0,0,0,10-22,10,10,0,0,0,0-12,10,10,0,0,0,10-2,10,10,0,0,0,20-12ZM9.084-7.34a1.192,1.192,0,0,1,0-1.687l1.746-1.724H6.211A1.211,1.211,0,0,1,5-11.961v-.078A1.211,1.211,0,0,1,6.211-13.25h4.6L9.084-14.959a1.192,1.192,0,0,1,0-1.687,1.216,1.216,0,0,1,1.7,0l3.848,3.811a1.191,1.191,0,0,1,0,1.686L10.789-7.339A1.214,1.214,0,0,1,9.084-7.34Z" transform="translate(0 22)"/></svg>