<svg xmlns="http://www.w3.org/2000/svg" width="400.963" height="264.099" viewBox="0 0 400.963 264.099"><defs><style>.a{fill:#cceced;}.a,.aa,.ab,.ac,.ad,.ae,.af,.ag,.ah,.ai,.aj,.d,.e,.f,.g,.h,.i,.j,.m,.n,.o,.p,.q,.r,.s,.t,.u,.v,.w,.x,.y,.z{fill-rule:evenodd;}.b{fill:#2c1021;}.c{fill:#260b1e;}.d{fill:#c41318;}.e,.k{fill:#312430;}.f{fill:#ed1f22;}.g{fill:#fff;}.h{fill:#8a92c1;}.i{fill:#99d9e8;}.j{fill:#f0575a;}.l{fill:#281928;}.m{fill:#f56007;}.n{fill:#4e8d26;}.o{fill:#8aca36;}.p{fill:#a6d85f;}.q{fill:#ccc;}.r{fill:#150619;}.s{fill:#faa4b8;}.t{fill:#f8597c;}.u{fill:#fc9a68;}.v{fill:#fb6750;}.w{fill:#3c4c88;}.x{fill:#6b78ab;}.y{fill:#f981a0;}.z{fill:#2b192b;}.aa{fill:#fb3030;}.ab{fill:#fcf1ae;}.ac{fill:#bf435c;}.ad{fill:#62384d;}.ae{fill:#422238;}.af{fill:#454c94;}.ag{fill:#f60;}.ah{fill:#5a261d;}.ai{fill:#622a09;}.aj{fill:#770d13;}</style></defs><g transform="translate(-31.468 -165.139)"><g transform="translate(31.468 165.139)"><path class="a" d="M97.824,251.734a6.387,6.387,0,0,1,9.537,3.679,4.13,4.13,0,0,1,5.206,3.988c0,.112,0,.225-.013.336a2.727,2.727,0,0,1,.492-.044,2.692,2.692,0,0,1,0,5.384H40.622a3.551,3.551,0,1,1,2.477-6.1,1.876,1.876,0,0,1,1.384-.769,3.785,3.785,0,0,1,4.4-3.59,7.227,7.227,0,0,1,12.48-3.317,5.954,5.954,0,0,1,5.96-2.634,11.343,11.343,0,0,1,22.018-.756,7.341,7.341,0,0,1,8.481,3.82Z" transform="translate(-32.111 -173.693)"/><g transform="translate(0 67.412)"><g transform="translate(39.192)"><rect class="b" width="131.131" height="3.865" transform="translate(9.087 115.989)"/><rect class="c" width="136.362" height="3.865" transform="translate(6.472 119.854)"/><path class="d" d="M233.855,306.315H176.549q-.319,14.6-.638,29.2t-.639,29.183h50.364q2.063-14.586,4.093-29.183Q231.781,320.931,233.855,306.315Z" transform="translate(-87.169 -248.758)"/><path class="e" d="M197.81,299.909h38.46c.9,2.464,1.785,4.918,2.686,7.372h-42.08Q197.343,303.6,197.81,299.909Z" transform="translate(-89.649 -248.022)"/><path class="f" d="M203.534,310.6H211.1a.59.59,0,0,1,.557.69c-.456,4.908-.853,9.819-1.294,14.726a.739.739,0,0,1-.7.69h-7.286a.6.6,0,0,1-.557-.69c.365-4.908.683-9.818,1.048-14.726A.72.72,0,0,1,203.534,310.6Z" transform="translate(-90.216 -249.25)"/><path class="f" d="M215.695,310.6h7.564a.566.566,0,0,1,.525.69c-.548,4.908-1.075,9.818-1.622,14.726a.76.76,0,0,1-.7.69h-7.3a.587.587,0,0,1-.541-.69c.471-4.909.92-9.817,1.375-14.726A.756.756,0,0,1,215.695,310.6Z" transform="translate(-91.57 -249.25)"/><path class="f" d="M227.545,310.6h7.564a.558.558,0,0,1,.508.69c-.668,4.907-1.28,9.82-1.948,14.726a.78.78,0,0,1-.7.69h-7.3a.563.563,0,0,1-.524-.69c.577-4.907,1.109-9.818,1.686-14.726A.765.765,0,0,1,227.545,310.6Z" transform="translate(-92.893 -249.25)"/><path class="f" d="M202.038,331.455h7.253a.591.591,0,0,1,.557.69c-.441,4.908-.9,9.816-1.326,14.725a.711.711,0,0,1-.639.691h-7.007a.6.6,0,0,1-.541-.691c.335-4.908.714-9.816,1.048-14.725A.7.7,0,0,1,202.038,331.455Z" transform="translate(-90.046 -251.644)"/><path class="f" d="M213.7,331.455h7.286a.574.574,0,0,1,.524.69q-.821,7.364-1.654,14.725a.745.745,0,0,1-.655.691h-7.024a.578.578,0,0,1-.507-.691q.683-7.363,1.376-14.725A.724.724,0,0,1,213.7,331.455Z" transform="translate(-91.347 -251.644)"/><path class="f" d="M225.106,331.455h7.269a.56.56,0,0,1,.507.69c-.638,4.911-1.327,9.815-1.981,14.725a.752.752,0,0,1-.654.691h-7.008a.566.566,0,0,1-.524-.691c.563-4.909,1.141-9.815,1.7-14.725A.746.746,0,0,1,225.106,331.455Z" transform="translate(-92.615 -251.644)"/><path class="f" d="M200.56,351.969h6.975a.579.579,0,0,1,.524.69c-.441,4.908-.9,9.815-1.327,14.725a.708.708,0,0,1-.621.691H199.4a.593.593,0,0,1-.524-.691q.525-7.364,1.048-14.725A.716.716,0,0,1,200.56,351.969Z" transform="translate(-89.878 -253.999)"/><path class="f" d="M211.78,351.969h6.99c.312,0,.52.306.475.69q-.843,7.36-1.638,14.725a.728.728,0,0,1-.638.691h-6.729c-.311,0-.527-.31-.491-.691.456-4.908.9-9.817,1.376-14.725A.737.737,0,0,1,211.78,351.969Z" transform="translate(-91.126 -253.999)"/><path class="f" d="M222.721,351.969H229.7c.328,0,.527.307.474.69-.668,4.908-1.311,9.817-1.964,14.725a.752.752,0,0,1-.655.691h-6.713c-.328,0-.533-.311-.49-.691.547-4.909,1.125-9.817,1.7-14.725A.746.746,0,0,1,222.721,351.969Z" transform="translate(-92.343 -253.999)"/><path class="d" d="M78.647,306.315h57.306q.564,14.6,1.146,29.2.576,14.586,1.145,29.183H87.881q-2.309-14.586-4.617-29.183T78.647,306.315Z" transform="translate(-76.076 -248.758)"/><path class="e" d="M116.725,299.909H78.264c-.851,2.464-1.685,4.918-2.521,7.372h42.046C117.446,304.827,117.084,302.372,116.725,299.909Z" transform="translate(-75.743 -248.022)"/><path class="f" d="M115.363,310.6h-7.548a.59.59,0,0,0-.574.69q.8,7.361,1.572,14.726a.744.744,0,0,0,.688.69h7.286a.591.591,0,0,0,.557-.69c-.441-4.908-.853-9.819-1.294-14.726A.737.737,0,0,0,115.363,310.6Z" transform="translate(-79.359 -249.25)"/><path class="f" d="M103.176,310.6H95.6a.571.571,0,0,0-.524.69q.933,7.363,1.9,14.726a.765.765,0,0,0,.688.69h7.3a.577.577,0,0,0,.54-.69c-.532-4.909-1.106-9.817-1.638-14.726A.758.758,0,0,0,103.176,310.6Z" transform="translate(-77.961 -249.25)"/><path class="f" d="M91.268,310.6H83.72a.557.557,0,0,0-.524.69c.744,4.908,1.467,9.819,2.21,14.726a.788.788,0,0,0,.721.69h7.286a.56.56,0,0,0,.524-.69q-.98-7.36-1.948-14.726A.771.771,0,0,0,91.268,310.6Z" transform="translate(-76.598 -249.25)"/><path class="f" d="M117.272,331.455H110a.577.577,0,0,0-.54.69c.517,4.909,1.055,9.816,1.572,14.725a.728.728,0,0,0,.655.691H118.7a.58.58,0,0,0,.524-.691c-.426-4.908-.868-9.817-1.293-14.725A.722.722,0,0,0,117.272,331.455Z" transform="translate(-79.613 -251.644)"/><path class="f" d="M105.546,331.455H98.277a.561.561,0,0,0-.524.69q.957,7.363,1.9,14.725a.765.765,0,0,0,.672.691h7.024a.562.562,0,0,0,.49-.691c-.546-4.908-1.073-9.818-1.621-14.725A.742.742,0,0,0,105.546,331.455Z" transform="translate(-78.269 -251.644)"/><path class="f" d="M94.1,331.455H86.848a.547.547,0,0,0-.507.69c.729,4.909,1.483,9.819,2.226,14.725a.773.773,0,0,0,.688.691h7.007a.55.55,0,0,0,.491-.691q-.98-7.363-1.948-14.725A.767.767,0,0,0,94.1,331.455Z" transform="translate(-76.959 -251.644)"/><path class="f" d="M119.143,351.969h-6.975a.576.576,0,0,0-.523.69q.775,7.364,1.571,14.725a.727.727,0,0,0,.639.691h6.729a.578.578,0,0,0,.491-.691q-.661-7.363-1.294-14.725A.72.72,0,0,0,119.143,351.969Z" transform="translate(-79.864 -253.999)"/><path class="f" d="M107.883,351.969h-6.975a.551.551,0,0,0-.491.69q.935,7.363,1.883,14.725a.749.749,0,0,0,.655.691h6.729c.312,0,.518-.309.475-.691-.547-4.908-1.075-9.817-1.621-14.725A.729.729,0,0,0,107.883,351.969Z" transform="translate(-78.575 -253.999)"/><path class="f" d="M96.9,351.969H89.922a.544.544,0,0,0-.474.69q1.117,7.363,2.226,14.725a.759.759,0,0,0,.655.691h6.713c.328,0,.526-.307.474-.691q-.98-7.36-1.948-14.725A.752.752,0,0,0,96.9,351.969Z" transform="translate(-77.315 -253.999)"/><path class="f" d="M119.247,287.316h0c5.681-4.62,11.455-9.278,17.372-13.869,5.987-4.647,12.148-9.25,18.4-13.88,6.3,4.63,12.529,9.233,18.6,13.88,6,4.592,11.854,9.249,17.633,13.869h0q-1.178,18-2.309,36.009-1.154,18-2.293,36.01H125.108q-1.5-18.006-2.93-36.01-1.462-18-2.931-36.009Z" transform="translate(-80.737 -243.391)"/><path class="d" d="M119.247,287.316h0c5.681-4.62,11.455-9.278,17.372-13.869,5.987-4.647,12.148-9.25,18.4-13.88,6.3,4.63,12.529,9.233,18.6,13.88,6,4.592,11.854,9.249,17.633,13.869h0c-.131,1.877-.245,3.753-.376,5.631-5.7-4.621-11.492-9.274-17.421-13.87-5.991-4.643-12.149-9.26-18.387-13.89-6.172,4.63-12.282,9.247-18.191,13.89-5.847,4.6-11.559,9.249-17.175,13.87-.164-1.878-.295-3.754-.459-5.631Z" transform="translate(-80.737 -243.391)"/><path class="e" d="M112.421,288.3c6.582-5.413,13.284-10.873,20.189-16.251,7-5.45,14.244-10.848,21.612-16.273,7.4,5.414,14.694,10.807,21.776,16.241,7,5.372,13.786,10.817,20.467,16.221-1.31,1.3-2.62,2.587-3.913,3.876-6.057-4.939-12.249-9.918-18.567-14.818-6.42-4.979-13.033-9.878-19.713-14.828-6.647,4.96-13.191,9.874-19.533,14.859-6.25,4.915-12.362,9.9-18.338,14.85Q114.411,290.249,112.421,288.3Z" transform="translate(-79.954 -242.956)"/><path class="g" d="M159.079,270.645a5.255,5.255,0,0,0-5.207,5.435,5.457,5.457,0,0,0,5.305,5.444,5.444,5.444,0,0,0-.1-10.879Z" transform="translate(-84.712 -244.663)"/><path class="e" d="M163.581,276.436h-.574a4.265,4.265,0,0,0,0-.464h.574v.464Zm-4.093,3.692v.6h-.442v-.6Zm-.066-8.446v.6h-.459c0-.2,0-.392-.016-.6Zm-3.962,4.754h-.573c-.017-.155,0-.309-.017-.464h.574A4.51,4.51,0,0,0,155.461,276.436Z" transform="translate(-84.827 -244.782)"/><path class="e" d="M162.95,278.728a4.4,4.4,0,0,1-.492-.289c.065-.135.148-.268.213-.413.164.1.328.206.507.3-.081.135-.147.268-.228.4Zm-5.322,1.051a5.66,5.66,0,0,1-.279.516,3.927,3.927,0,0,1-.392-.237c.1-.165.18-.329.278-.505a3.9,3.9,0,0,0,.393.227Zm4.028-7.3c-.114.175-.2.34-.295.505-.147-.072-.262-.144-.409-.227.114-.166.2-.341.295-.516a4.547,4.547,0,0,0,.409.237Zm-5.779,2.031c-.181-.093-.36-.2-.524-.3.081-.134.164-.267.245-.4a4.331,4.331,0,0,0,.491.289C156.007,274.242,155.942,274.376,155.876,274.51Z" transform="translate(-84.882 -244.846)"/><path class="e" d="M161.3,280.295c-.114-.165-.2-.34-.295-.516.131-.072.246-.144.393-.227a5.83,5.83,0,0,0,.295.505,4.246,4.246,0,0,0-.393.237Zm-5.157-1.855c-.164.1-.312.195-.475.289-.081-.135-.147-.268-.245-.4.164-.093.328-.2.507-.3.066.145.148.278.213.413Zm7.04-4.229c-.18.1-.36.206-.507.3a3.74,3.74,0,0,1-.229-.413c.164-.093.327-.186.491-.289.081.135.164.268.245.4Zm-6.025-1.227c-.1-.166-.2-.33-.295-.505.131-.073.245-.155.393-.237.1.175.2.351.294.516C157.407,272.839,157.292,272.912,157.162,272.984Z" transform="translate(-84.891 -244.846)"/><path class="e" d="M159.751,276.26a.462.462,0,0,0-.459.465.475.475,0,0,0,.459.474.462.462,0,0,0,.442-.474A.448.448,0,0,0,159.751,276.26Z" transform="translate(-85.334 -245.307)"/><path class="e" d="M159.263,273.349a.344.344,0,1,1,.688,0c0,1,.017,2,.017,3a.412.412,0,0,1-.05.205c-.312.588-.655,1.165-.966,1.743a.338.338,0,0,1-.475.134.369.369,0,0,1-.1-.484c.295-.556.606-1.124.917-1.692C159.279,275.287,159.263,274.319,159.263,273.349Z" transform="translate(-85.224 -244.933)"/><path class="d" d="M123.279,340.483H188.9c-.05.887-.115,1.774-.164,2.649H123.492C123.426,342.257,123.344,341.37,123.279,340.483Z" transform="translate(-81.2 -252.68)"/><path class="d" d="M125.129,290.915h9.2a.844.844,0,0,1,.8.815q.433,8.645.884,17.293a.745.745,0,0,1-.7.814h-8.858a.838.838,0,0,1-.785-.814c-.425-5.765-.82-11.531-1.245-17.293A.72.72,0,0,1,125.129,290.915Z" transform="translate(-81.331 -246.99)"/><path class="d" d="M139.978,290.915h9.2a.81.81,0,0,1,.785.815c.137,5.764.258,11.528.41,17.293a.755.755,0,0,1-.721.814H140.8a.828.828,0,0,1-.77-.814c-.273-5.764-.513-11.531-.786-17.293A.752.752,0,0,1,139.978,290.915Z" transform="translate(-83.032 -246.99)"/><path class="d" d="M154.461,290.915h9.2a.79.79,0,0,1,.769.815c0,5.764-.049,11.528-.049,17.293a.773.773,0,0,1-.721.814h-8.874a.793.793,0,0,1-.737-.814c-.121-5.765-.206-11.53-.328-17.293A.759.759,0,0,1,154.461,290.915Z" transform="translate(-84.695 -246.99)"/><path class="d" d="M168.924,290.915h9.186a.77.77,0,0,1,.753.815q-.251,8.645-.475,17.293a.821.821,0,0,1-.769.814h-8.858a.761.761,0,0,1-.72-.814q.045-8.648.1-17.293A.8.8,0,0,1,168.924,290.915Z" transform="translate(-86.339 -246.99)"/><path class="d" d="M184.047,290.915h9.2a.747.747,0,0,1,.721.815c-.319,5.763-.646,11.528-.95,17.293a.844.844,0,0,1-.786.814h-8.841a.754.754,0,0,1-.721-.814c.182-5.765.407-11.529.59-17.293A.826.826,0,0,1,184.047,290.915Z" transform="translate(-88.018 -246.99)"/><path class="d" d="M126.892,315.938h8.792a.85.85,0,0,1,.786.814q.433,8.647.867,17.293a.722.722,0,0,1-.671.814h-8.432a.834.834,0,0,1-.769-.814q-.615-8.648-1.245-17.293A.713.713,0,0,1,126.892,315.938Z" transform="translate(-81.537 -249.862)"/><path class="d" d="M141.076,315.938h8.776a.8.8,0,0,1,.769.814q.206,8.647.41,17.293a.731.731,0,0,1-.688.814H141.91a.812.812,0,0,1-.736-.814q-.388-8.648-.786-17.293A.731.731,0,0,1,141.076,315.938Z" transform="translate(-83.164 -249.862)"/><path class="d" d="M154.909,315.938H163.7a.78.78,0,0,1,.737.814q-.024,8.647-.033,17.293a.761.761,0,0,1-.7.814h-8.448a.776.776,0,0,1-.7-.814q-.159-8.648-.344-17.293A.749.749,0,0,1,154.909,315.938Z" transform="translate(-84.75 -249.862)"/><path class="d" d="M168.726,315.938H177.5a.76.76,0,0,1,.721.814c-.167,5.764-.308,11.528-.475,17.293a.792.792,0,0,1-.72.814h-8.449a.758.758,0,0,1-.7-.814c.046-5.765.069-11.529.114-17.293A.785.785,0,0,1,168.726,315.938Z" transform="translate(-86.32 -249.862)"/><path class="d" d="M183.181,315.938h8.777a.75.75,0,0,1,.7.814q-.479,8.648-.95,17.293a.828.828,0,0,1-.752.814h-8.432a.748.748,0,0,1-.688-.814c.2-5.765.375-11.529.573-17.293A.818.818,0,0,1,183.181,315.938Z" transform="translate(-87.923 -249.862)"/><path class="h" d="M177.444,291.836h4.306c-.081,1.722-.164,3.443-.229,5.155h-4.274c.066-1.712.115-3.434.2-5.155Zm-52.149,0H129.6c.1,1.722.2,3.443.311,5.155h-4.257c-.131-1.712-.245-3.434-.36-5.155Zm4.879,0h4.306c.081,1.722.163,3.443.262,5.155h-4.258c-.1-1.712-.212-3.434-.311-5.155Zm4.6,5.764c.1,1.929.2,3.846.294,5.764h-4.191c-.115-1.918-.229-3.836-.344-5.764Zm.328,6.373c.081,1.723.18,3.444.261,5.157h-4.142c-.1-1.713-.2-3.435-.311-5.157Zm-4.438,5.157h-4.159c-.115-1.713-.246-3.435-.377-5.157h4.208c.115,1.723.212,3.444.328,5.157Zm-4.569-5.765c-.13-1.918-.262-3.836-.392-5.764h4.256c.115,1.929.229,3.846.344,5.764Zm12.313-11.528h4.322c.049,1.722.114,3.443.18,5.155h-4.273c-.082-1.712-.164-3.434-.229-5.155Zm4.9,0h4.29c.033,1.722.082,3.443.131,5.155h-4.257c-.049-1.712-.114-3.434-.164-5.155Zm4.438,5.764c.049,1.929.081,3.846.131,5.764h-4.192c-.065-1.918-.114-3.836-.18-5.764Zm.147,6.373q.074,2.584.148,5.157h-4.143c-.066-1.713-.114-3.435-.18-5.157Zm-4.552,5.157h-4.175c-.066-1.713-.148-3.435-.229-5.157h4.224c.065,1.723.114,3.444.18,5.157Zm-4.421-5.765c-.1-1.918-.164-3.836-.245-5.764h4.257c.082,1.929.131,3.846.2,5.764ZM126.85,313.986h4.11c.114,1.722.213,3.444.311,5.155h-4.06c-.114-1.711-.245-3.434-.36-5.155Zm4.667,0h4.109c.082,1.722.164,3.444.262,5.155h-4.06c-.1-1.711-.2-3.434-.311-5.155Zm4.4,5.764q.147,2.892.295,5.764h-3.995c-.115-1.917-.229-3.836-.36-5.764Zm.328,6.373c.082,1.722.181,3.443.278,5.156h-3.961c-.1-1.713-.213-3.435-.312-5.156Zm-4.207,5.156h-3.979c-.114-1.713-.245-3.435-.36-5.156h4.012c.1,1.722.212,3.443.328,5.156Zm-4.372-5.765c-.147-1.917-.278-3.836-.426-5.764h4.077c.114,1.928.245,3.846.36,5.764Zm11.724-11.528h4.126c.049,1.722.114,3.444.18,5.155h-4.093c-.082-1.711-.148-3.434-.212-5.155Zm4.666,0h4.093c.05,1.722.082,3.444.131,5.155h-4.06c-.049-1.711-.1-3.434-.164-5.155Zm4.241,5.764q.073,2.892.147,5.764h-3.995c-.066-1.917-.131-3.836-.213-5.764Zm.164,6.373c.049,1.722.081,3.443.131,5.156h-3.946c-.066-1.713-.115-3.435-.18-5.156Zm-4.339,5.156h-3.979c-.081-1.713-.163-3.435-.229-5.156h4.028c.05,1.722.115,3.443.181,5.156Zm-4.241-5.765q-.122-2.876-.245-5.764h4.077q.1,2.892.2,5.764Zm11.724-11.528h4.126c.016,1.722.033,3.444.049,5.155H151.7c-.033-1.711-.066-3.434-.1-5.155Zm4.683,0h4.11c0,1.722-.017,3.444,0,5.155h-4.077c-.017-1.711-.017-3.434-.033-5.155Zm4.093,5.764c.017,1.928.017,3.846.017,5.764h-4.029q-.024-2.876-.049-5.764Zm0,6.373v5.156H156.42c-.017-1.713-.033-3.435-.05-5.156Zm-4.486,5.156h-3.979c-.033-1.713-.065-3.435-.1-5.156h4.029c.016,1.722.033,3.443.049,5.156Zm-4.077-5.765c-.032-1.917-.065-3.836-.114-5.764h4.076c.033,1.928.05,3.846.066,5.764Zm-.605-33.677h4.322c0,1.722.017,3.443.033,5.155H151.3c-.032-1.712-.065-3.434-.081-5.155Zm4.879,0h4.322c-.016,1.722-.016,3.443-.016,5.155h-4.257c-.017-1.712-.034-3.434-.05-5.155ZM160.4,297.6v5.764h-4.208c-.016-1.918-.033-3.836-.049-5.764Zm0,6.373v5.157h-4.16q-.024-2.569-.049-5.157Zm-4.7,5.157h-4.175q-.049-2.569-.1-5.157h4.208c.017,1.723.05,3.444.066,5.157Zm-4.29-5.765c-.033-1.918-.065-3.836-.1-5.764h4.274c.016,1.929.033,3.846.049,5.764ZM164,291.836h4.306c-.032,1.722-.049,3.443-.081,5.155h-4.257c0-1.712.016-3.434.033-5.155Zm4.9,0h4.29c-.049,1.722-.1,3.443-.131,5.155H168.8c.034-1.712.065-3.434.1-5.155Zm4.143,5.764c-.05,1.929-.114,3.846-.164,5.764h-4.191c.033-1.918.081-3.836.114-5.764Zm-.181,6.373c-.033,1.723-.081,3.444-.114,5.157H168.6c.017-1.713.05-3.435.082-5.157Zm-4.83,5.157H163.87c.017-1.713.033-3.435.033-5.157h4.207c-.033,1.723-.049,3.444-.081,5.157Zm-4.126-5.765c.016-1.918.049-3.836.066-5.764h4.257c-.033,1.929-.082,3.846-.115,5.764Zm-.066,10.622h4.11c-.017,1.722-.066,3.444-.082,5.155h-4.077c.017-1.711.033-3.434.05-5.155Zm4.666,0h4.11c-.05,1.722-.1,3.444-.148,5.155h-4.044c.016-1.711.066-3.434.081-5.155Zm3.946,5.764q-.073,2.892-.148,5.764h-3.995q.049-2.876.1-5.764Zm-.164,6.373c-.05,1.722-.1,3.443-.131,5.156h-3.946c.017-1.713.05-3.435.082-5.156Zm-4.617,5.156h-3.962c0-1.713.016-3.435.033-5.156h4.011c-.032,1.722-.065,3.443-.081,5.156Zm-3.929-5.765q.024-2.876.049-5.764h4.06c-.032,1.928-.066,3.846-.081,5.764Zm12.918-11.528h4.126c-.081,1.722-.163,3.444-.228,5.155h-4.077c.065-1.711.131-3.434.18-5.155Zm4.683,0h4.093c-.081,1.722-.18,3.444-.278,5.155h-4.044c.066-1.711.147-3.434.228-5.155Zm3.782,5.764q-.146,2.892-.295,5.764h-4.011c.081-1.917.18-3.836.245-5.764Zm-.343,6.373c-.082,1.722-.181,3.443-.262,5.156h-3.962c.081-1.713.164-3.435.228-5.156Zm-4.748,5.156h-3.979c.065-1.713.131-3.435.181-5.156h4.011c-.066,1.722-.147,3.443-.212,5.156Zm-3.766-5.765q.1-2.876.2-5.764h4.06q-.123,2.892-.246,5.764Zm6.057-33.677h4.29c-.1,1.722-.18,3.443-.278,5.155h-4.241c.082-1.712.148-3.434.229-5.155Zm3.995,5.764c-.114,1.929-.228,3.846-.328,5.764H181.8c.082-1.918.181-3.836.262-5.764Zm-.343,6.373c-.1,1.723-.2,3.444-.279,5.157h-4.142c.081-1.713.148-3.435.229-5.157ZM181,309.129h-4.159c.05-1.713.114-3.435.164-5.157h4.208c-.082,1.723-.148,3.444-.213,5.157Zm-3.978-5.765c.066-1.918.147-3.836.212-5.764h4.257c-.081,1.929-.181,3.846-.262,5.764Z" transform="translate(-81.432 -247.095)"/><path class="i" d="M161.807,292.5l-2.591,4.488H157.54l0-.474,2.7-4.681h1.576q0,.333-.005.667Zm-2.942,5.1-1.307,2.263-.019-2.263Zm-1.855,3.213-1.473,2.551h-1.955l3.328-5.764h.073l.027,3.213Zm-1.824,3.159-2.286,3.96-.062-3.279.393-.682Zm-5.78,10.013-2.977,5.155h-.808q-.027-.944-.055-1.892l1.885-3.264Zm-3.328,5.764-.411.712q-.015-.356-.03-.712Zm-.911,1.577-2.417,4.186H141.28l-.034-.786,2.874-4.977h.991l.053,1.577Zm-2.768,4.8-1.012,1.753q-.038-.876-.073-1.753Zm-4.932,5.156.418-.724.041.724Zm7.007-12.138.585-1.013q.019.507.038,1.013Zm29.933-20.4-2.669,4.623h-1.655c0-.179.006-.357.009-.536l3.019-5.228h1.328q-.015.572-.031,1.141Zm-3.02,5.232-1.346,2.333q.019-1.166.042-2.333Zm-1.93,3.342-1.047,1.816h-1.955l2.977-5.157h.078c-.02,1.115-.035,2.23-.052,3.342Zm-3.852,6.672-.375.651.006-.651Zm-3.818,6.613-2.838,4.915h-1.18l-.011-1.323,2.564-4.44h1.459c0,.283,0,.566.006.849Zm-3.189,5.524-.814,1.412-.014-1.412Zm-1.33,2.3-1.646,2.852h-1.955l2.976-5.156h.6l.021,2.3Zm-.274-2.913.249-.429,0,.429Zm3.68-6.373,1.116-1.934c0,.646,0,1.292.008,1.934Zm12.788-22.149,1.032-1.787q-.023.895-.04,1.787Zm-1.147-5.155-2.087,3.614q.035-1.8.068-3.614Zm-2.68,4.642-.3.513h-3.97q0-1.651.016-3.312l1.064-1.844H169.7c-.029,1.55-.045,3.1-.072,4.642Zm-.648,1.122-3.328,5.764H165.3c.016-1.918.049-3.836.065-5.764Zm-3.68,6.373,0,.009v-.009Zm-5.78,10.013-1.818,3.15c-.005-1.049-.01-2.1-.019-3.15Zm-2.356,4.079-.622,1.076H153.1q-.039-2.022-.078-4.06l.634-1.1h3.472l.039,4.079Zm-.973,1.685-2.989,5.178c-.029-1.723-.06-3.446-.1-5.178Zm-6.225,10.782-.432.747h-3.494c-.049-1.288-.089-2.581-.134-3.876l.738-1.28h3.211c.042,1.472.072,2.944.111,4.409Zm-6.3.747,1.736-3.007c.035,1,.073,2.007.112,3.007ZM147,325.513l2.722-4.714q.06,2.363.12,4.714Zm9.46-16.384.623-1.08q.008.54.012,1.08Zm1.157-2,1.82-3.153H161.8v5.157h-4.16l-.019-2Zm2.171-3.761,2.007-3.475v3.475Z" transform="translate(-82.829 -247.095)"/><path class="j" d="M156.944,328.449c3.6.03,25.163,15.149,25.163,15.156-.271,7.817-.528,14.882-.772,23.637H132.508c-.436-8.674-.779-15.578-1.15-23.193C131.351,343.885,151.59,328.4,156.944,328.449Z" transform="translate(-82.128 -251.299)"/><path class="d" d="M157.5,328.449c2.578.021,14.385,7.792,20.868,12.2l-1.078,26.6H137.049l-.839-26.486C142.455,336.17,153.71,328.417,157.5,328.449Z" transform="translate(-82.685 -251.299)"/><path class="e" d="M127.02,343.686,156.075,324.2l29.192,19.641-1.652,3.474-27.5-17.752L128.983,347.48Z" transform="translate(-81.63 -250.811)"/><path class="g" d="M159.3,336.646a3.657,3.657,0,0,0-3.623,3.782,3.8,3.8,0,0,0,3.691,3.788,3.788,3.788,0,0,0-.068-7.57Z" transform="translate(-84.919 -252.24)"/><path class="e" d="M162.431,340.675h-.4a3.011,3.011,0,0,0,0-.322h.4v.322Zm-2.848,2.569v.417h-.308v-.417Zm-.046-5.876v.415h-.319c0-.135,0-.272-.012-.415Zm-2.757,3.307h-.4c-.012-.107,0-.214-.012-.322h.4A3.008,3.008,0,0,0,156.78,340.675Z" transform="translate(-84.999 -252.322)"/><path class="e" d="M161.991,342.271a2.869,2.869,0,0,1-.342-.2c.045-.093.1-.186.148-.287.114.072.228.143.353.209-.058.093-.1.186-.159.28Zm-3.7.731c-.057.122-.126.243-.194.358a2.665,2.665,0,0,1-.274-.165c.068-.114.125-.229.194-.351a2.8,2.8,0,0,0,.274.158Zm2.8-5.08c-.08.122-.137.237-.205.351-.1-.05-.181-.1-.285-.158a3.978,3.978,0,0,0,.205-.359,2.862,2.862,0,0,0,.285.166Zm-4.021,1.414c-.126-.065-.251-.136-.365-.208l.17-.28a2.983,2.983,0,0,0,.343.2C157.161,339.149,157.115,339.242,157.07,339.335Z" transform="translate(-85.037 -252.367)"/><path class="e" d="M160.847,343.36c-.08-.115-.136-.236-.205-.358.091-.05.171-.1.274-.158a3.953,3.953,0,0,0,.205.351,3.074,3.074,0,0,0-.274.165Zm-3.589-1.292c-.113.072-.216.137-.33.2-.057-.094-.1-.187-.171-.28.114-.065.228-.137.353-.209.046.1.1.194.148.287Zm4.9-2.941c-.126.072-.251.143-.353.208a2.52,2.52,0,0,1-.159-.288c.113-.064.228-.128.342-.2.058.093.113.187.171.28Zm-4.192-.854c-.069-.114-.137-.229-.205-.351.091-.05.171-.107.274-.166.068.123.136.245.205.359C158.134,338.173,158.055,338.223,157.964,338.273Z" transform="translate(-85.043 -252.367)"/><path class="e" d="M159.766,340.553a.322.322,0,0,0-.32.324.333.333,0,0,0,.32.33.323.323,0,0,0,.307-.33A.312.312,0,0,0,159.766,340.553Z" transform="translate(-85.352 -252.688)"/><path class="e" d="M159.427,338.527a.239.239,0,1,1,.478,0c0,.7.011,1.392.011,2.089a.289.289,0,0,1-.035.143c-.216.409-.455.811-.672,1.212a.235.235,0,0,1-.33.093.257.257,0,0,1-.069-.337c.205-.387.422-.781.638-1.176C159.437,339.876,159.427,339.2,159.427,338.527Z" transform="translate(-85.275 -252.428)"/><path class="f" d="M140.248,347.47h9.2a.81.81,0,0,1,.786.814c.136,5.764.258,11.53.41,17.293a.754.754,0,0,1-.721.814h-8.857a.826.826,0,0,1-.77-.814c-.274-5.764-.513-11.529-.786-17.293A.751.751,0,0,1,140.248,347.47Z" transform="translate(-83.063 -253.482)"/><path class="f" d="M154.73,347.47h9.2a.79.79,0,0,1,.77.814c0,5.765-.05,11.53-.05,17.293a.772.772,0,0,1-.721.814h-8.874a.791.791,0,0,1-.736-.814c-.121-5.764-.206-11.529-.328-17.293A.758.758,0,0,1,154.73,347.47Z" transform="translate(-84.726 -253.482)"/><path class="f" d="M169.194,347.47h9.186a.768.768,0,0,1,.752.814q-.25,8.648-.474,17.293a.821.821,0,0,1-.769.814h-8.858a.761.761,0,0,1-.721-.814q.046-8.645.1-17.293A.8.8,0,0,1,169.194,347.47Z" transform="translate(-86.37 -253.482)"/><path class="h" d="M165.972,348.39h4.306c-.033,1.723-.049,3.445-.082,5.156h-4.257c0-1.711.017-3.433.034-5.156Zm-12.788,0h4.322c0,1.723.016,3.445.033,5.156h-4.274c-.033-1.711-.066-3.433-.081-5.156Zm4.878,0h4.323c-.017,1.723-.017,3.445-.017,5.156h-4.257c-.016-1.711-.033-3.433-.05-5.156Zm4.306,5.765v5.764h-4.207c-.017-1.918-.033-3.836-.05-5.764Zm0,6.373v5.155h-4.159c-.016-1.711-.033-3.434-.049-5.155Zm-4.7,5.155H153.5c-.033-1.711-.066-3.434-.1-5.155h4.208c.016,1.722.05,3.444.065,5.155Zm-4.291-5.764c-.033-1.918-.065-3.836-.1-5.764h4.273c.017,1.928.033,3.846.05,5.764Zm-13-11.53H144.7c.049,1.723.114,3.445.18,5.156H140.61c-.082-1.711-.165-3.433-.23-5.156Zm4.9,0h4.29c.033,1.723.082,3.445.131,5.156H145.44c-.05-1.711-.115-3.433-.164-5.156Zm4.437,5.765c.05,1.928.082,3.846.131,5.764h-4.191c-.066-1.918-.114-3.836-.18-5.764Zm.148,6.373c.05,1.722.1,3.444.147,5.155h-4.142c-.065-1.711-.115-3.434-.181-5.155Zm-4.552,5.155h-4.175c-.066-1.711-.148-3.434-.228-5.155h4.223c.066,1.722.115,3.444.181,5.155Zm-4.421-5.764c-.1-1.918-.164-3.836-.246-5.764H144.9c.082,1.928.131,3.846.2,5.764Zm29.979-11.53h4.29c-.05,1.723-.1,3.445-.131,5.156h-4.257c.033-1.711.065-3.433.1-5.156Zm4.142,5.765c-.049,1.928-.114,3.846-.164,5.764h-4.191c.032-1.918.081-3.836.114-5.764Zm-.18,6.373c-.033,1.722-.081,3.444-.115,5.155h-4.142c.016-1.711.049-3.434.082-5.155ZM170,365.683h-4.159c.016-1.711.033-3.434.033-5.155h4.207c-.033,1.722-.049,3.444-.081,5.155Zm-4.126-5.764c.016-1.918.049-3.836.065-5.764H170.2c-.033,1.928-.081,3.846-.114,5.764Z" transform="translate(-83.163 -253.588)"/><path class="i" d="M169.578,348.39h1.045q-.015.811-.027,1.623l-2.04,3.533H166.6l2.977-5.156Zm-14.245,0-1.761,3.051c-.018-1.016-.034-2.033-.042-3.051Zm-5.2,9.01-1.454,2.519h-1.955l3.328-5.764h.008c.028,1.083.05,2.165.073,3.245Zm-1.806,3.127-2.165,3.751c-.036-1.064-.071-2.131-.11-3.2l.32-.553Zm-2.69,4.66-.286.5H143.4l2.132-3.694c.036,1.068.07,2.135.109,3.2Zm25.9-16.8-.331.575.011-.575Zm-3.328,5.765-1.96,3.395c.015-1.13.03-2.261.039-3.395Zm-5.49,9.509-1.166,2.019h-1.955l2.977-5.155h.144v3.136Zm0-10.531-.239.413h-4.018l-.03-3.149,1.159-2.008h3.145c-.015,1.584-.017,3.167-.017,4.743Zm-.59,1.022L158.8,359.92h-.289c-.017-1.918-.033-3.836-.05-5.764Zm-4.166,7.213-2.491,4.314h-1.628c-.033-1.711-.066-3.434-.1-5.155h4.208q0,.421.009.841Zm-8.357,4.314.715-1.238.035,1.238Zm4.1-7.1,2.556-4.426H157.9c.017,1.928.033,3.846.05,5.764h-4.225l-.022-1.338Zm2.906-5.035,1.256-2.175q.008,1.09.019,2.175Z" transform="translate(-83.509 -253.588)"/><rect class="k" width="62.62" height="3.865" transform="translate(43.343 115.989)"/><rect class="l" width="69.921" height="3.865" transform="translate(39.692 119.854)"/><path class="m" d="M165.324,252.28l6.05-3.2-5.972-3.11C165.351,248.079,165.324,250.169,165.324,252.28Z" transform="translate(-86.027 -241.83)"/><path class="m" d="M159.7,242.749l6.4,1.658v5.529l-6.484,1.591Z" transform="translate(-85.371 -241.46)"/><path class="e" d="M159.924,255.858a.212.212,0,1,1-.424,0V242.924a.212.212,0,1,1,.424,0Z" transform="translate(-85.358 -241.456)"/><path class="e" d="M159.641,242.8a.756.756,0,1,0-.756-.755A.757.757,0,0,0,159.641,242.8Z" transform="translate(-85.288 -241.293)"/><path class="h" d="M116.024,348H112.75c.131,1.465.278,2.928.426,4.393h3.242c-.131-1.465-.279-2.928-.393-4.393ZM91.431,311.382h-3.52c.212,1.465.409,2.929.622,4.393h3.487c-.2-1.464-.377-2.928-.59-4.393Zm-3.995,0c.213,1.465.409,2.929.622,4.393h-3.5c-.229-1.464-.426-2.928-.655-4.393Zm-2.8,4.909c.246,1.639.491,3.279.721,4.908h3.471c-.229-1.63-.459-3.269-.7-4.908Zm.8,5.424c.228,1.464.442,2.929.654,4.393h3.422c-.2-1.464-.409-2.929-.622-4.393Zm4.551,4.393c-.212-1.464-.409-2.929-.621-4.393h3.454l.59,4.393Zm2.767-4.908H89.286c-.228-1.63-.442-3.269-.688-4.908h3.488c.246,1.639.459,3.279.671,4.908Zm9.2-9.818H98.423c.18,1.465.343,2.929.523,4.393h3.5c-.164-1.464-.311-2.928-.49-4.393Zm-4.012,0c.181,1.465.343,2.929.524,4.393h-3.5c-.2-1.464-.359-2.928-.557-4.393Zm-2.914,4.909c.212,1.639.425,3.279.622,4.908h3.471c-.2-1.63-.393-3.269-.59-4.908Zm.687,5.424c.2,1.464.393,2.929.557,4.393h3.439q-.271-2.2-.541-4.393Zm4.453,4.393c-.163-1.464-.343-2.929-.524-4.393h3.472l.491,4.393Zm2.882-4.908H99.586c-.2-1.63-.377-3.269-.59-4.908h3.52c.18,1.639.359,3.279.54,4.908Zm9.676-9.818H109.2c.148,1.465.279,2.929.426,4.393h3.52c-.148-1.464-.262-2.928-.41-4.393Zm-4.012,0H105.2c.164,1.465.295,2.929.458,4.393h3.488c-.147-1.464-.278-2.928-.426-4.393Zm-3.012,4.909c.181,1.639.36,3.279.524,4.908h3.439c-.148-1.63-.312-3.269-.475-4.908Zm.574,5.424c.164,1.464.311,2.929.459,4.393h3.421l-.442-4.393Zm4.338,4.393h3.439q-.2-2.2-.394-4.393h-3.471c.147,1.464.295,2.929.426,4.393Zm3-4.908h-3.471c-.164-1.63-.312-3.269-.474-4.908h3.5c.164,1.639.295,3.279.442,4.908Zm.769,8.641h-3.405c.131,1.464.279,2.929.426,4.393H114.8c-.148-1.464-.279-2.929-.41-4.393Zm-3.864,0H107.15c.148,1.464.295,2.929.459,4.393h3.357q-.222-2.2-.443-4.393Zm-2.865,4.908c.164,1.639.344,3.28.524,4.908h3.307c-.163-1.629-.328-3.269-.49-4.908Zm.574,5.424c.147,1.464.311,2.927.458,4.392h3.275c-.131-1.465-.278-2.928-.426-4.392Zm4.175,4.392h3.307c-.132-1.465-.262-2.928-.41-4.392h-3.324c.148,1.464.295,2.927.427,4.392Zm2.865-4.908h-3.34c-.148-1.629-.328-3.269-.475-4.908h3.373c.147,1.639.295,3.28.442,4.908Zm-11.232-9.817h-3.421c.18,1.464.343,2.929.524,4.393h3.389q-.271-2.2-.492-4.393Zm-3.88,0q.271,2.2.54,4.393H97.326c-.181-1.464-.376-2.929-.557-4.393Zm-2.767,4.908c.213,1.639.426,3.28.622,4.908h3.324c-.18-1.629-.393-3.269-.59-4.908Zm.688,5.424c.2,1.464.393,2.927.573,4.392h3.275c-.164-1.465-.344-2.928-.524-4.392Zm4.29,4.392c-.164-1.465-.344-2.928-.524-4.392h3.34c.164,1.464.344,2.927.491,4.392Zm2.767-4.908H101.8c-.2-1.629-.393-3.269-.59-4.908h3.373c.18,1.639.377,3.28.557,4.908ZM93.92,329.841H90.515c.2,1.464.409,2.929.621,4.393H94.51q-.319-2.2-.59-4.393Zm-3.865,0q.32,2.2.639,4.393H87.322c-.229-1.464-.442-2.929-.655-4.393ZM87.4,334.749c.229,1.639.491,3.28.721,4.908h3.324c-.212-1.629-.459-3.269-.688-4.908Zm.8,5.424c.228,1.464.442,2.927.654,4.392h3.291c-.2-1.465-.409-2.928-.621-4.392Zm4.388,4.392c-.2-1.465-.41-2.928-.622-4.392H95.3l.59,4.392Zm2.635-4.908H91.907c-.229-1.629-.475-3.269-.688-4.908h3.357c.212,1.639.442,3.28.654,4.908ZM96.343,348H93.085c.2,1.465.41,2.928.622,4.393h3.226L96.343,348Zm-3.7,0q.32,2.2.639,4.393H90.04c-.212-1.465-.442-2.928-.655-4.393Zm-2.521,4.908c.245,1.64.474,3.28.736,4.908h3.193c-.246-1.629-.475-3.268-.7-4.908Zm.8,5.424c.229,1.465.442,2.929.655,4.393h3.16c-.213-1.464-.41-2.928-.623-4.393Zm4.24,4.393c-.212-1.464-.409-2.928-.621-4.393h3.192c.2,1.465.377,2.929.59,4.393Zm2.506-4.908H94.477c-.246-1.629-.475-3.268-.7-4.908H97c.229,1.64.442,3.28.672,4.908Zm8.4-9.817h-3.274c.164,1.465.343,2.928.524,4.393h3.242c-.164-1.465-.344-2.928-.491-4.393Zm-3.716,0c.164,1.465.343,2.928.523,4.393H99.65c-.2-1.465-.376-2.928-.557-4.393Zm-2.636,4.908c.212,1.64.409,3.28.622,4.908h3.192c-.2-1.629-.393-3.268-.59-4.908Zm.687,5.424c.2,1.465.377,2.929.557,4.393h3.16c-.18-1.464-.344-2.928-.524-4.393Zm4.143,4.393c-.18-1.464-.344-2.928-.524-4.393h3.193c.18,1.465.328,2.929.491,4.393Zm2.62-4.908h-3.21c-.2-1.629-.393-3.268-.573-4.908h3.226c.18,1.64.359,3.28.557,4.908Zm5.14-9.817h-3.258c.147,1.465.311,2.928.474,4.393h3.209c-.147-1.465-.295-2.928-.426-4.393Zm-2.734,4.908c.164,1.64.328,3.28.508,4.908h3.176c-.164-1.629-.311-3.268-.474-4.908Zm.574,5.424c.147,1.465.295,2.929.458,4.393h3.128c-.131-1.464-.279-2.928-.426-4.393Zm4.012,4.393h3.176q-.2-2.2-.393-4.393h-3.193c.131,1.465.279,2.929.41,4.393Zm2.733-4.908h-3.209c-.164-1.629-.312-3.268-.459-4.908h3.226C116.6,354.549,116.744,356.188,116.891,357.817Z" transform="translate(-76.679 -249.339)"/><path class="i" d="M107.471,311.382l-1.447,2.506c-.084-.835-.167-1.669-.26-2.506Zm-4.144,7.177L101.8,321.2h-1.655c-.018-.143-.035-.287-.051-.43l2.585-4.478h.4q.123,1.134.249,2.268Zm-1.823,3.156-1.066,1.847q-.112-.924-.227-1.847Zm-1.456,2.524-1.08,1.87H97.013l2.536-4.393h.189l.311,2.524Zm-5.134,8.893-.637,1.1H92.322l2.227-3.858q.173,1.377.366,2.755Zm-.935,1.618-1.774,3.072c-.13-.907-.259-1.817-.38-2.727l.2-.344Zm-2.133,3.7c-.125-.9-.257-1.811-.386-2.719l-2.27,3.932h1.955l.7-1.213Zm-1,1.729L89.2,343.03q-.2-1.342-.4-2.687l.1-.169Zm12.131-24.4.029-.049,0,.049Zm10.035,14.066-1.264,2.189q-.106-1.094-.206-2.189Zm-1.642,2.845-.894,1.548h-1.955l2.536-4.393h.027l.287,2.845Zm-1.191,2.063-1.66,2.874q-.155-1.431-.3-2.867l0-.007Zm-4.218,7.3-1.45,2.512h-1.581q-.031-.271-.062-.543l2.224-3.85h.654c.07.627.143,1.253.215,1.88ZM102.53,348l-2.358,4.083c-.123-.924-.239-1.849-.354-2.773l.756-1.31Zm-4.561,7.9-1.107,1.917H95.039l-.028-.182,2.584-4.476q.191,1.372.374,2.741Zm-1.4,2.433-1.171,2.03q-.142-1.014-.288-2.03Zm-1.515,2.623-1.022,1.77H92.141l-.014-.095,2.481-4.3h.07c.127.875.249,1.749.371,2.623Zm10.341-21.3.258-.446c.017.149.033.3.05.446Zm7.823-13.55L114.432,324l.189,2.112Zm.667-8.3-1.958,3.392h-1.214c-.164-1.63-.312-3.269-.474-4.908h3.5q.076.758.143,1.516Zm-2.256,3.907-.739,1.28c-.042-.427-.085-.852-.128-1.28Zm-1.143,1.98-1.393,2.413H107.3c-.148-1.464-.295-2.929-.459-4.393h3.438l.2,1.98Zm-5.509,9.543-.575,1H101.7c-.181-1.464-.344-2.929-.524-4.393H104.6q.171,1.7.372,3.4Zm-.873,1.511-1.93,3.343q-.2-1.668-.4-3.343Zm-2.305,3.991c-.154-1.327-.325-2.659-.484-3.991H98.233l-.228.4c.2,1.507.39,3.014.571,4.513h2.69l.528-.917Zm-.827,1.433-1.893,3.279c-.14-1.093-.287-2.186-.433-3.279ZM96.448,348,94.2,351.9c-.189-1.3-.375-2.6-.551-3.9Zm-2.834,4.908-2.332,4.038c-.207-1.342-.4-2.69-.6-4.038Zm-3.539-4.03c.174,1.171.356,2.343.526,3.515h3.242q-.32-2.2-.639-4.393H90.582l-.506.878Zm2.489-4.312.12-.209.028.209Zm.478-.829,2.058-3.564h.756l.59,4.392h-3.29c-.037-.276-.075-.551-.113-.829Zm2.356-4.08.32-.554q.037.277.073.554Zm3.132-5.424h2.73l-.479-3.9-2.251,3.9Zm4.692-8.126.8-1.383.155,1.383Zm3.461-6q.057.544.112,1.087h3.439c-.148-1.63-.312-3.269-.475-4.908h-.868l-2.207,3.821Zm2.5-4.337.445-.771c.025.257.051.514.076.771Zm.852-1.476,1.684-2.918h1.571c.148,1.465.262,2.929.41,4.393h-3.52Q110.11,315.038,110.04,314.3Z" transform="translate(-77.241 -249.339)"/><path class="h" d="M200.567,348h3.291c-.131,1.465-.245,2.928-.36,4.393h-3.242c.114-1.465.212-2.928.311-4.393Zm23.954-36.618h3.52q-.27,2.2-.54,4.393h-3.488c.164-1.464.328-2.928.508-4.393Zm3.995,0q-.271,2.2-.541,4.393h3.5c.2-1.464.376-2.928.573-4.393Zm2.881,4.909c-.2,1.639-.426,3.279-.622,4.908H227.3c.2-1.63.41-3.269.606-4.908Zm-.7,5.424c-.2,1.464-.377,2.929-.573,4.393H226.7q.27-2.2.54-4.393Zm-4.453,4.393q.27-2.2.54-4.393H223.31c-.164,1.464-.328,2.929-.508,4.393Zm-2.865-4.908h3.471c.2-1.63.393-3.269.59-4.908h-3.488c-.18,1.639-.376,3.279-.573,4.908Zm-9.381-9.818h3.552c-.147,1.465-.311,2.929-.459,4.393h-3.5c.131-1.464.279-2.928.41-4.393Zm4.028,0h3.52c-.147,1.465-.311,2.929-.474,4.393h-3.5c.147-1.464.294-2.928.459-4.393Zm2.98,4.909c-.164,1.639-.36,3.279-.524,4.908h-3.471c.164-1.63.343-3.269.507-4.908Zm-.59,5.424c-.164,1.464-.312,2.929-.474,4.393h-3.422q.222-2.2.442-4.393Zm-4.371,4.393H212.6c.148-1.464.279-2.929.41-4.393H216.5c-.147,1.464-.295,2.929-.458,4.393Zm-2.964-4.908h3.471c.164-1.63.328-3.269.49-4.908h-3.52c-.131,1.639-.295,3.279-.442,4.908Zm-9.857-9.818h3.536q-.173,2.2-.343,4.393h-3.5c.1-1.464.2-2.928.311-4.393Zm4.011,0h3.52c-.114,1.465-.245,2.929-.376,4.393h-3.488q.173-2.2.343-4.393Zm3.095,4.909c-.131,1.639-.278,3.279-.426,4.908h-3.438c.114-1.63.262-3.269.377-4.908Zm-.474,5.424c-.131,1.464-.246,2.929-.376,4.393h-3.406q.173-2.2.344-4.393Zm-4.257,4.393h-3.438c.114-1.464.212-2.929.311-4.393h3.471q-.147,2.2-.343,4.393Zm-3.079-4.908c.115-1.63.229-3.269.344-4.908h3.5c-.114,1.639-.245,3.279-.376,4.908Zm-.621,8.641H205.3q-.173,2.2-.344,4.393h-3.373c.1-1.464.2-2.929.312-4.393Zm3.863,0h3.374c-.114,1.464-.245,2.929-.376,4.393h-3.341q.173-2.2.343-4.393Zm2.948,4.908c-.148,1.639-.278,3.28-.426,4.908h-3.324c.148-1.629.262-3.269.41-4.908Zm-.475,5.424q-.2,2.2-.392,4.392h-3.274c.13-1.465.245-2.928.359-4.392Zm-4.109,4.392h-3.291c.1-1.465.2-2.928.312-4.392h3.323q-.171,2.2-.343,4.392Zm-2.947-4.908c.131-1.629.228-3.269.36-4.908h3.373c-.131,1.639-.262,3.28-.393,4.908Zm11.069-9.817h3.421q-.22,2.2-.442,4.393h-3.389c.148-1.464.278-2.929.41-4.393Zm3.88,0c-.164,1.464-.311,2.929-.459,4.393h3.373c.148-1.464.312-2.929.474-4.393Zm2.849,4.908c-.18,1.639-.36,3.28-.54,4.908h-3.324c.164-1.629.328-3.269.508-4.908Zm-.605,5.424c-.164,1.464-.328,2.927-.475,4.392H214.6q.22-2.2.442-4.392Zm-4.207,4.392q.22-2.2.442-4.392h-3.341c-.13,1.464-.262,2.927-.409,4.392Zm-2.834-4.908h3.324c.18-1.629.344-3.269.508-4.908h-3.374c-.164,1.639-.311,3.28-.459,4.908Zm11.036-9.817h3.405q-.27,2.2-.54,4.393h-3.373c.18-1.464.343-2.929.507-4.393Zm3.864,0q-.27,2.2-.54,4.393h3.357c.2-1.464.376-2.929.573-4.393Zm2.734,4.908c-.212,1.639-.426,3.28-.638,4.908H225c.212-1.629.393-3.269.605-4.908Zm-.721,5.424c-.2,1.464-.376,2.927-.573,4.392h-3.291q.271-2.2.54-4.392Zm-4.306,4.392q.27-2.2.54-4.392h-3.324c-.163,1.464-.328,2.927-.507,4.392Zm-2.718-4.908h3.324c.212-1.629.41-3.269.622-4.908h-3.373c-.2,1.639-.377,3.28-.574,4.908ZM220.248,348h3.258q-.27,2.2-.54,4.393H219.74c.164-1.465.327-2.928.507-4.393Zm3.7,0c-.18,1.465-.36,2.928-.557,4.393h3.242c.181-1.465.377-2.928.574-4.393Zm2.6,4.908c-.2,1.64-.427,3.28-.656,4.908H222.72c.2-1.629.409-3.268.606-4.908Zm-.7,5.424-.59,4.393H222.1c.2-1.464.377-2.928.557-4.393Zm-4.176,4.393c.2-1.464.377-2.928.557-4.393h-3.176c-.181,1.465-.344,2.929-.524,4.393Zm-2.57-4.908h3.175c.213-1.629.427-3.268.623-4.908h-3.226c-.181,1.64-.377,3.28-.573,4.908ZM210.522,348H213.8q-.22,2.2-.442,4.393h-3.242c.131-1.465.278-2.928.409-4.393Zm3.717,0q-.222,2.2-.443,4.393h3.226c.164-1.465.312-2.928.475-4.393Zm2.718,4.908c-.164,1.64-.36,3.28-.54,4.908h-3.193c.181-1.629.344-3.268.507-4.908Zm-.589,5.424q-.247,2.2-.491,4.393h-3.16c.164-1.464.311-2.928.458-4.393Zm-4.077,4.393c.164-1.464.311-2.928.459-4.393h-3.193c-.131,1.465-.279,2.929-.426,4.393Zm-2.7-4.908H212.8c.164-1.629.344-3.268.508-4.908h-3.242c-.148,1.64-.312,3.28-.475,4.908Zm-5.3-9.817h3.258l-.393,4.393h-3.209q.171-2.2.343-4.393Zm2.816,4.908c-.131,1.64-.278,3.28-.426,4.908H203.5c.131-1.629.279-3.268.393-4.908Zm-.459,5.424c-.131,1.465-.262,2.929-.409,4.393H203.1c.131-1.464.246-2.928.36-4.393Zm-3.962,4.393H199.5c.115-1.464.229-2.928.328-4.393h3.209c-.114,1.465-.229,2.929-.36,4.393Zm-2.816-4.908c.114-1.629.245-3.268.36-4.908h3.242c-.131,1.64-.262,3.28-.393,4.908Z" transform="translate(-89.951 -249.339)"/><path class="i" d="M200.567,348h.413l-.467.808q.028-.4.054-.808Zm3.057,2.785q-.064.8-.127,1.608h-.8l.929-1.608Zm17.791-38.18-1.831,3.171h-1.955l2.537-4.393h1.376q-.061.612-.126,1.223Zm-2.129,3.687-2.162,3.743c.13-1.245.264-2.495.389-3.743ZM216.567,321l-.115.2H214.5l2.481-4.3q-.206,2.053-.411,4.1Zm-.413.713-2.536,4.393H212.6q.1-.975.189-1.951l1.409-2.442Zm-7.525,13.035-2.834,4.908h-.84c.068-.752.129-1.5.189-2.26l1.53-2.649Zm-3.132,5.424-.666,1.153c.031-.385.06-.769.09-1.153Zm-1.2,2.071-1.34,2.321h-1.955l2.536-4.392h.921l-.162,2.071Zm-.462-2.587.783-1.354q-.054.678-.109,1.354Zm3.132-5.424,2.1-3.635c-.1,1.213-.208,2.424-.316,3.635Zm23.239-8.807-.392.681h-1.955l2.536-4.393h.295c-.166,1.238-.32,2.476-.483,3.713Zm-2.548,4.414-1.829,3.167.389-3.167Zm-2.411,4.177-.125.216h-1.955l2.536-4.393h.058l-.513,4.177Zm-.422.731L222,339.658h-.782c.1-.847.2-1.7.3-2.549l1.362-2.359Zm-3.132,5.424-.682,1.181q.066-.592.132-1.181ZM217.179,348l-2.536,4.393H213.8l.235-2.328L215.223,348Zm-2.834,4.908-.743,1.286q.064-.643.128-1.286ZM213.08,355.1l-1.569,2.717h-1.922l.007-.07,2.794-4.839h.916q-.11,1.1-.226,2.192Zm-1.867,3.232-1.987,3.443c.115-1.148.227-2.3.33-3.443Zm1.474-5.939.809-1.4-.142,1.4Zm4.519-7.827.834-1.445q-.077.722-.151,1.445ZM230.7,321.2l.1-.173-.021.173Zm1.3-9.4-2.294,3.971h-1.728q.271-2.2.541-4.393h3.536c-.019.142-.038.282-.056.422Zm-2.591,4.487-1.9,3.3c.136-1.1.275-2.2.408-3.3Zm-2.487,4.308-.346.6h-3.2c.2-1.63.393-3.269.573-4.908h3.488l-.517,4.308Zm-.644,1.115-2.536,4.393H222.8c.181-1.464.344-2.929.508-4.393Zm-7.525,13.035-2.834,4.908h-.808c.164-1.629.328-3.269.508-4.908Zm-3.132,5.424-.7,1.208.121-1.208Zm-1.233,2.136-1.3,2.256h-2.232c.147-1.465.279-2.928.409-4.392H214.6l-.215,2.136ZM211.1,348l-.686,1.187q.056-.592.109-1.187Zm-4.2,7.269-1.471,2.548H203.5c.131-1.629.279-3.268.393-4.908H207.1q-.093,1.182-.2,2.361Zm-1.769,3.063-1.938,3.357c.095-1.118.182-2.237.27-3.357Zm-2.439,4.225-.1.168H199.5c.115-1.464.229-2.928.328-4.393h3.209c-.11,1.408-.22,2.817-.345,4.225Zm-2.788-5.331,2.493-4.318h1.067c-.131,1.64-.262,3.28-.393,4.908h-3.209c.014-.2.027-.393.042-.59Zm4.229-7.326,1.1-1.9h2.31l-.393,4.393h-3.209l.195-2.493Zm3.08-5.334.736-1.275-.114,1.275Zm4.349-7.532q-.122,1.315-.24,2.624h3.324c.18-1.629.344-3.269.508-4.908h-2.273l-1.319,2.285Zm1.616-2.8,2.471-4.282-.43,4.282Zm4.692-8.126,2.536-4.393h0c-.164,1.464-.312,2.929-.474,4.393Zm6.184-10.711-.042.378H227.5q.27-2.2.54-4.393h-1.668l-2.317,4.015Zm-7.934,14.444h3.389c-.163,1.464-.327,2.929-.474,4.393h-3.373C215.811,332.77,215.958,331.305,216.122,329.841Z" transform="translate(-89.951 -249.339)"/></g><g transform="translate(11.277 83.901)"><path class="n" d="M53.842,336.282c2.906,3.49,5.213,8.826,6.665,13.685a49.8,49.8,0,0,1,2.155,12.6c.1,3.636-.354,7.586-2.1,10.468A7.86,7.86,0,0,1,53.441,377a7.861,7.861,0,0,1-7.123-3.96c-1.744-2.882-2.2-6.832-2.1-10.468a49.834,49.834,0,0,1,2.155-12.6c1.452-4.859,3.759-10.195,6.665-13.685A.491.491,0,0,1,53.842,336.282Z" transform="translate(-44.207 -336.075)"/><path class="o" d="M54.045,384.686a.432.432,0,0,1-.863,0V373.8l-7.391-7.391A.288.288,0,0,1,46.2,366l6.985,6.986v-6.364l-6.923-6.967a.288.288,0,1,1,.407-.406l6.516,6.56v-6.362l-5.566-5.567a.287.287,0,0,1,.406-.406l5.16,5.16v-6.364l-3.094-3.095a.287.287,0,0,1,.406-.406l2.687,2.687V345.04a.432.432,0,0,1,.863,0v6.415l2.687-2.687a.287.287,0,0,1,.406.406l-3.094,3.095v6.364l4.893-4.983a.288.288,0,0,1,.406.407l-5.3,5.389v6.362l6.295-6.25a.287.287,0,0,1,.406.406l-6.7,6.657v6.364L61.03,366a.288.288,0,0,1,.407.407L54.045,373.8Z" transform="translate(-44.379 -337.055)"/></g><g transform="translate(196.783 86.66)"><path class="n" d="M263.406,339.4c2.906,3.491,5.215,8.825,6.666,13.685a49.84,49.84,0,0,1,2.155,12.6c.1,3.635-.354,7.584-2.1,10.468a8.388,8.388,0,0,1-14.245,0c-1.744-2.884-2.2-6.833-2.1-10.468a49.922,49.922,0,0,1,2.156-12.6c1.452-4.86,3.759-10.194,6.665-13.685A.49.49,0,0,1,263.406,339.4Z" transform="translate(-253.772 -339.192)"/><path class="o" d="M263.609,387.8a.431.431,0,1,1-.862,0V376.915l-7.391-7.393a.287.287,0,1,1,.406-.406l6.985,6.986v-6.364l-6.922-6.967a.287.287,0,0,1,.405-.407l6.517,6.561v-6.363L257.179,357a.288.288,0,1,1,.408-.407l5.159,5.16v-6.364l-3.093-3.094a.287.287,0,1,1,.406-.406l2.687,2.687v-6.414a.431.431,0,1,1,.862,0v6.414l2.688-2.687a.288.288,0,1,1,.408.406l-3.1,3.094v6.364l4.9-4.982a.287.287,0,0,1,.406.406l-5.3,5.389v6.363l6.3-6.25a.287.287,0,0,1,.406.406l-6.7,6.657V376.1l6.985-6.986a.288.288,0,0,1,.408.406l-7.393,7.393Z" transform="translate(-253.944 -340.172)"/></g><g transform="translate(23.56 69.67)"><path class="o" d="M70.106,320.258c3.627,4.355,6.506,11.013,8.317,17.076a62.167,62.167,0,0,1,2.689,15.728c.124,4.537-.441,9.465-2.618,13.063a9.81,9.81,0,0,1-8.888,4.94,9.807,9.807,0,0,1-8.888-4.94c-2.177-3.6-2.742-8.526-2.618-13.063a62.167,62.167,0,0,1,2.689-15.728c1.812-6.064,4.691-12.721,8.317-17.076A.611.611,0,0,1,70.106,320.258Z" transform="translate(-58.084 -319.999)"/><path class="n" d="M70.358,380.66a.538.538,0,0,1-1.076,0V367.073l-9.225-9.225a.359.359,0,0,1,.508-.507l8.717,8.717v-7.941l-8.64-8.694a.359.359,0,1,1,.508-.507l8.131,8.187v-7.941l-6.946-6.946a.359.359,0,1,1,.507-.507l6.439,6.439v-7.941l-3.86-3.861a.359.359,0,0,1,.507-.507l3.353,3.353v-8a.538.538,0,1,1,1.076,0v8l3.354-3.353a.359.359,0,0,1,.507.507l-3.861,3.861v7.941l6.107-6.218a.359.359,0,0,1,.508.507l-6.615,6.725V357.1l7.855-7.8a.359.359,0,1,1,.508.507l-8.363,8.308v7.941l8.717-8.717a.359.359,0,1,1,.507.507l-9.225,9.225Z" transform="translate(-58.298 -321.221)"/></g><g transform="translate(180.817 73.214)"><path class="o" d="M247.757,324.26c3.627,4.356,6.507,11.014,8.317,17.078a62.155,62.155,0,0,1,2.69,15.727c.125,4.538-.441,9.465-2.618,13.064a10.467,10.467,0,0,1-17.777,0c-2.177-3.6-2.742-8.526-2.618-13.064a62.154,62.154,0,0,1,2.69-15.727c1.811-6.065,4.691-12.722,8.316-17.078A.612.612,0,0,1,247.757,324.26Z" transform="translate(-235.735 -324.001)"/><path class="n" d="M248.01,384.663a.538.538,0,1,1-1.076,0V371.077l-9.225-9.226a.359.359,0,1,1,.507-.507l8.717,8.718v-7.941l-8.64-8.7a.359.359,0,0,1,.507-.507l8.132,8.188v-7.941l-6.947-6.947a.359.359,0,0,1,.508-.507l6.439,6.439v-7.94l-3.861-3.862a.359.359,0,0,1,.507-.507l3.354,3.354v-8a.538.538,0,0,1,1.076,0v8l3.354-3.354a.359.359,0,0,1,.507.507l-3.861,3.862v7.94l6.107-6.217a.359.359,0,1,1,.508.506l-6.615,6.726v7.941l7.854-7.8a.359.359,0,0,1,.509.507l-8.363,8.308v7.941l8.717-8.718a.358.358,0,1,1,.506.507l-9.224,9.226Z" transform="translate(-235.949 -325.224)"/></g><path class="o" d="M145.314,377.047c62.875,0,113.846,4.958,113.846,11.074S208.188,399.2,145.314,399.2,31.468,394.238,31.468,388.121,82.439,377.047,145.314,377.047Z" transform="translate(-31.468 -256.878)"/><path class="p" d="M149.19,377.047c39.509,0,74.313,1.958,94.728,4.931-4.876,3.791-42.891,6.743-89.072,6.743-49.489,0-89.607-3.389-89.607-7.57a.845.845,0,0,1,.224-.532C86.266,378.423,116.074,377.047,149.19,377.047Z" transform="translate(-35.345 -256.878)"/></g><g transform="translate(150.963 60.631)"><path class="q" d="M284.392,447.989c38.951,0,70.526,3.071,70.526,6.86s-31.575,6.86-70.526,6.86-70.527-3.072-70.527-6.86S245.44,447.989,284.392,447.989Z" transform="translate(-203.37 -258.241)"/><g transform="translate(0 3.9)"><path class="r" d="M283.646,243.409c52.854-.884,22.163,49.548,36.074,82.209,6.612,15.521,4.312,16.1.143,15.521-7.8-1.076-10.622-25.08-11.21-26.875,0,0,1.725,18.683,5.175,27.162s-6.9,6.612-9.342,6.036-12.073-3.019-14.085-7.043-7.618-7.473-9.63-18.683-4.455-9.054-2.155-29.32S283.646,243.409,283.646,243.409Z" transform="translate(-210.696 -238.654)"/><path class="r" d="M287.31,246.673c-15.36-19.861-47.992-1.779-51.883,17.247-2.587,12.647-7.761,39.091-15.234,48.721s-8.624,13.51-5.031,13.653,7.042-6.612,7.042-6.612-2.731,6.325-4.886,12.648,2.874,5.605,6.18,1.581a58.288,58.288,0,0,1,4.886-5.462s-3.593,8.048-.288,10.779c4.844,4,23.56-11.878,26.3-15.091,4.168-4.886,6.9-11.641,7.044-12.935S287.31,246.673,287.31,246.673Z" transform="translate(-203.293 -238.039)"/><path class="s" d="M289.785,329.092c5.9.567,9.674,2.448,10.956,5.835s8.55,32.468,7.938,39.848c-1.8,21.781-32.676-9.405-35.932-28.618-1.009-5.954-18.7-1.223-25.257-4.4-3.541-1.712,3.559-15.1,5.448-15.8C256.572,324.617,289.753,329,289.785,329.092Z" transform="translate(-207.118 -248.103)"/><path class="t" d="M304.5,370.938c3.147-1.1,7.587-2.4,9.4-3.1,3.042-1.163,2.356-1.693,2.938,2.116,2.507,16.443-6.766,21.864-11.956,10.423C302.968,376.154,302.757,370.559,304.5,370.938Z" transform="translate(-213.638 -252.842)"/><path class="u" d="M239.928,288.674a6.708,6.708,0,0,0-3.577-4.784c-7.792-4.357-11.555,11.462-.119,14.607C240.168,299.579,239.928,288.674,239.928,288.674Z" transform="translate(-205.108 -243.216)"/><g transform="translate(0 23.165)"><path class="u" d="M245.33,323.947c-10.454-4.65-17.263-22.7-19.016-32.829-.53-3.065.273-7.481.137-7.438l-11.812,3.692c2.937,23.783,3.1,35.633,18.44,49.046C244.391,346.308,247.188,326.883,245.33,323.947Z" transform="translate(-203.459 -266.443)"/><path class="u" d="M207.689,267.111l2.183,2.175s-3.914-2.263-6-1.737c-1.45.366-.834,1.567.218,2.573,1.3,1.248,3.132,2.064,4.618,3.339,0,0-5.641-3.252-6.4-2.286s-.052,2.353,1.523,3.664c.834.694,2.805,1.948,3.274,2.481,1.032,1.173-2.966-1.059-3.565-1.083-1.047-.04-1.43.914-1.394,1.894.011.285,12.576,14.047,21.182,8.026a20.5,20.5,0,0,0,6.624-10.083c.845-3.638,1.015-5.831-1.93-4.146-.889.507-3.924,4.16-5.622,2.984-2.3-1.594-5.17-4.319-7.821-6.634a35.241,35.241,0,0,0-4.422-3.2C206.433,262.718,206.333,265.758,207.689,267.111Z" transform="translate(-202.009 -264.208)"/><path class="v" d="M225.521,275.8a.373.373,0,1,1,.406.625c-.882.576-1.547.991-1.55.993a.369.369,0,0,1-.219.057h0A8.97,8.97,0,0,0,218.1,279a8.211,8.211,0,0,0-2.98,5.255.373.373,0,1,1-.733-.138,8.932,8.932,0,0,1,3.266-5.714,9.635,9.635,0,0,1,6.427-1.682C224.292,276.594,224.808,276.268,225.521,275.8Z" transform="translate(-203.43 -265.532)"/><path class="v" d="M217.965,272.117a.373.373,0,0,1-.044.745,6.8,6.8,0,0,0-5.3,1.739,10.846,10.846,0,0,0-2.864,5.994.373.373,0,1,1-.733-.137,11.555,11.555,0,0,1,3.085-6.4A7.524,7.524,0,0,1,217.965,272.117Z" transform="translate(-202.813 -265.114)"/></g><path class="h" d="M260.244,333.572l-2.587,18.685s-23.283-8.91-24.289-10.06,7.186-20.266,7.186-20.266C246.074,328.453,260.553,331.359,260.244,333.572Z" transform="translate(-205.599 -247.67)"/><g transform="translate(53.051 130.333)"><path class="u" d="M284.313,385.274c21.648,18.745,35.118,9.768,37.7,10.513,1.253.362,3.775,4.76,1.649,6.2-10.414,7.039-26.284,9.635-38.909,3.189-8.262-4.218-13.812,6.912-22.808,5.473C266.987,401.571,284.313,385.274,284.313,385.274Z" transform="translate(-261.94 -385.274)"/><g transform="translate(48.023 8.286)"><path class="t" d="M316.337,405.926c1.083-7.964,5.106-1.77,6.726-3.425.941-.96.035-2.825-.681-4.217-.843-1.639-.887-2.255,1.268-2.074a12.792,12.792,0,0,0,4.276.267c3.818-.787,7.732-3.987,8.913.5,1.2,4.548,2.787,32.859-5.766,29.189s-7.123-16.3-7.123-16.3C320.423,410.577,315.257,413.89,316.337,405.926Z" transform="translate(-316.191 -394.635)"/><g transform="translate(7.67 14.507)"><path class="g" d="M324.856,413.54c.009-.943.068-1.582.083-1.748l2.149-.725a.814.814,0,0,1,.524,1.542Z" transform="translate(-324.856 -411.023)"/><path class="g" d="M324.975,416.589c-.058-.6-.089-1.168-.107-1.685l3.085-1.04a.814.814,0,1,1,.521,1.542Z" transform="translate(-324.857 -411.344)"/><path class="g" d="M325.385,419.476c-.118-.554-.209-1.1-.279-1.624l2.5-.844a.814.814,0,0,1,.522,1.542Z" transform="translate(-324.885 -411.705)"/><path class="g" d="M326.166,422.333c-.189-.516-.349-1.037-.485-1.554l2.52-.852a.814.814,0,0,1,.522,1.542Z" transform="translate(-324.951 -412.04)"/></g><path class="r" d="M335.28,394.763a94.137,94.137,0,0,1,.883,18.6c-.294,5.081-1.116,9.838-2.766,12.931,8.159,2.759,6.6-24.839,5.417-29.323C338.216,394.7,336.914,394.4,335.28,394.763Z" transform="translate(-318.167 -394.635)"/></g></g><g transform="translate(32.747 121.724)"><path class="u" d="M249.586,393.281a152.555,152.555,0,0,0,11.67,38.527c1.056,2.466,14.325,13.055,8.847,1.136s-2.686-21.132-.334-30.168c.441-1.7.9-3.339,1.409-4.854-1.919-6.439-4.088-13.864-6.555-22.373C256.24,381.678,249.586,393.281,249.586,393.281Z" transform="translate(-240.217 -375.549)"/><path class="t" d="M269.011,436.393c3.394,6.337,3.887,8.941,1.776,10.257-2.377,1.483-28.58,8.914-30.934,4.967-1.686-2.83-.907-8.491,2.713-11.656,4.361-3.813,5.215-1.743,7.753-2.333,4.2-.977,6.265-.457,7.014-1.077.557-.46-.82-1.792-.567-3.79.237-1.869,6.078-2.626,5.394-.3-1.447,4.919,2.59,3.41,5.116,2.086C269.261,433.5,268.173,434.828,269.011,436.393Z" transform="translate(-239.002 -381.916)"/><g transform="translate(8.593 54.467)"><path class="g" d="M258.079,437.6a2.618,2.618,0,0,0,1.444-.356.353.353,0,0,0,.114-.166l1.014,2.085a.814.814,0,1,1-1.462.716Z" transform="translate(-249.786 -437.08)"/><path class="g" d="M254.909,437.907c.659-.081,1.235-.127,1.734-.159l1.3,2.664a.814.814,0,1,1-1.462.716Z" transform="translate(-249.422 -437.157)"/><path class="g" d="M251.858,438.427c.593-.136,1.143-.243,1.652-.328l1.462,3a.814.814,0,0,1-1.462.715Z" transform="translate(-249.071 -437.197)"/><path class="g" d="M248.71,438.448a17.831,17.831,0,0,0,1.882.145l1.336,2.739a.814.814,0,1,1-1.463.714Z" transform="translate(-248.71 -437.237)"/></g><path class="r" d="M267.6,446.008a108.528,108.528,0,0,1-14.027,3.633c-5.418,1.011-10.686,1.5-14.5.97a6.386,6.386,0,0,0,.794,2.548c2.354,3.947,28.557-3.484,30.934-4.967,1.162-.724,1.536-1.838,1.07-3.749q-.786.319-1.649.642C269.389,445.393,268.514,445.7,267.6,446.008Z" transform="translate(-239.009 -383.458)"/></g><g transform="translate(30.936 121.944)"><path class="w" d="M249.491,380.42l-12.534,12.513a11.7,11.7,0,0,0,2.068,3.4c-1.247,1.624-1.964,2.58-1.964,2.58s12.47,16.376,39.753,11.687S307.6,392.193,307.6,392.193l-1.224-1a17.7,17.7,0,0,1,1.5-2.172L290.05,377.466l-.448.032-2.086-1.7-35.383,4.122q-.138.165-.274.329Z" transform="translate(-236.957 -375.797)"/><g transform="translate(1.734 5.94)"><path class="x" d="M300.5,382.951a.244.244,0,1,1,.281-.4c13.164,9.37,13.205,9.343,13.205,9.343a.244.244,0,0,1-.185.452S313.708,392.352,300.5,382.951Z" transform="translate(-245.974 -382.507)"/><path class="x" d="M239.352,397.663a.244.244,0,1,1-.382-.3c8.737-11.074,8.8-11.186,8.8-11.187a.245.245,0,0,1,.474.12S248.3,386.326,239.352,397.663Z" transform="translate(-238.916 -382.907)"/><path class="x" d="M243.05,405.459a.244.244,0,1,1-.425-.239l8.708-15.444a.243.243,0,1,1,.423.239Z" transform="translate(-239.338 -383.327)"/><path class="x" d="M251.814,410.041a.245.245,0,0,1-.469-.14l5.483-18.235a.244.244,0,1,1,.468.141Z" transform="translate(-240.342 -383.539)"/><path class="x" d="M262.782,413.239a.245.245,0,0,1-.488-.046l1.879-20.222a.245.245,0,0,1,.488.045Z" transform="translate(-241.6 -383.683)"/><path class="x" d="M273.277,413.33a.245.245,0,0,1-.49.03L271.552,392.6a.245.245,0,1,1,.489-.029Z" transform="translate(-242.663 -383.636)"/><path class="x" d="M284.261,412.47a.247.247,0,0,1-.19.289.244.244,0,0,1-.289-.19l-4.034-19.956a.245.245,0,0,1,.19-.289.243.243,0,0,1,.289.19Z" transform="translate(-243.603 -383.634)"/><path class="x" d="M294.156,409.314a.245.245,0,1,1-.456.178l-6.913-17.706a.244.244,0,1,1,.455-.178Z" transform="translate(-244.41 -383.534)"/><path class="x" d="M302.309,405.67a.244.244,0,1,1-.43.232l-8.907-16.521a.245.245,0,0,1,.432-.232Z" transform="translate(-245.118 -383.255)"/><path class="x" d="M310.712,399.744a.244.244,0,1,1-.35.34l-12.808-13.175a.244.244,0,0,1,.351-.34Z" transform="translate(-245.64 -382.965)"/></g></g><path class="v" d="M237.727,290.122a3.625,3.625,0,0,0-1.935-2.587c-4.214-2.357-6.25,6.2-.065,7.9C237.857,296.021,237.727,290.122,237.727,290.122Z" transform="translate(-205.431 -243.674)"/><path class="h" d="M301.948,357.4c1.708,4.379-10.562.568-13.142,1.072a18.48,18.48,0,0,0,2.217,9.818c2.747,5.19,6.024,5.207,3.164,7.387-8.321,6.346-39.794,11.677-45.706,1.537-.237-.407-2.355-39.366,7.59-39.446a29.348,29.348,0,0,0,4.26-.416c5.2-.828,11.611-2.623,17.559-2.881C299.074,333.552,297.361,345.642,301.948,357.4Z" transform="translate(-207.303 -249.104)"/><path class="y" d="M241.864,358.487c1.154,3.821,5.444,9.439,7.308,4.8.479-1.191-.289-4.53-.012-7.232.709-6.925,1.7-15.081,5.882-24.941.66-1.557,5.371-3.977,5.643-4.3.469-.563-5.083-1.914-7.766-2.462C245.838,322.905,239.48,350.594,241.864,358.487Z" transform="translate(-206.525 -247.941)"/><path class="g" d="M264.118,338.64c-3.461,2.8-8.587,5.678-9.282,4.168s1.448-12.791,4.9-15.522,17.425-2.946,19.372.647-1.675,16.025-4.682,17.318-7.55-6.323-7.55-6.323Z" transform="translate(-208.058 -248.049)"/><path class="v" d="M256.181,318.731c1.009,4.376,3.862,19.135,10.247,19.189,7.584.064,17.69-19.265,16.875-20.415C282.917,316.959,255.135,314.191,256.181,318.731Z" transform="translate(-208.224 -247.008)"/><path class="r" d="M286.557,373.754c1.058,1.456,6.806,6.537,11.334,7.025s2.724,2.483.473,2.591-10.706-3.19-15.213-8.38S286.557,373.754,286.557,373.754Z" transform="translate(-211.164 -253.453)"/><path class="y" d="M278.181,338.918c-1.444,3.79-3.72,16.677.394,26.8,1.523,3.746,7.645,10.791,8.667,6.027.181-.844-.88-1.9-1.052-3.654-.866-8.9.083-22.735,2.255-29.224.279-.83,1.692-1.933,2.991-2.834C298.657,331.027,282.149,328.5,278.181,338.918Z" transform="translate(-210.53 -248.79)"/><path class="u" d="M304.118,308.4a6.7,6.7,0,0,1,5.935-.667c8.509,2.7-.446,16.27-10.567,10.084C296,315.693,304.118,308.4,304.118,308.4Z" transform="translate(-213.099 -245.995)"/><path class="u" d="M299.492,291.467c-3.188,14.806-2.973,32.558-27.7,33.743-20.574.988-35.111-12.545-38.077-25.948-.985-4.451,1.456-12.218,4.108-19.625,2.979-8.318,6.5-16.194,11.067-18.589,2.649-1.388,16.5-3.435,29.031,1.112C290.381,266.68,301.534,277.754,299.492,291.467Z" transform="translate(-205.623 -240.487)"/><path class="g" d="M254.868,287.278a3.473,3.473,0,1,0,3.086,3.549A3.332,3.332,0,0,0,254.868,287.278Z" transform="translate(-207.7 -243.691)"/><path class="v" d="M299.907,291.467c-.725,3.359-1.273,6.869-1.977,10.3.1-3.869-2.255-5.548-4.789-7.186-2.89-1.87.5-7.43.5-7.43s-3.833.874-5.286-.783.4-4.084.4-4.084a7.163,7.163,0,0,1-1.43-.444c-1.2-.437-.223-2.371-.223-2.371s-.775.9-2.708-.134-.713-3.367-.713-3.367a6.47,6.47,0,0,1-5.325.6c-3.088-.952-2.965-5.333-2.965-5.333s-2.564,2.929-5.435,2.445-3.235-3.957-3.9-2.937-3.306.6-3.306.6.645,3.769-3.646,2.495-1.014,1.183-3.829,2.835-4.125-3.116-4.375-2.488-3.2,7.065-7.316,5.8c-3.564-1.1-4.959.586-6.481,2.894.366-1.079.747-2.163,1.132-3.239,2.979-8.318,6.5-16.194,11.067-18.589,2.649-1.388,16.5-3.435,29.031,1.112C290.8,266.68,301.948,277.754,299.907,291.467Z" transform="translate(-206.038 -240.487)"/><path class="r" d="M235.965,283.816c1.769-3.628,4.118-9.713,6.9-7.724s4.614-.524,6.106-4.169,1.532-5.52,2.554-2.122c1.1,3.653,3.225,2.864,3.551,1.666.454-1.662-.8-3.431,1.272-2.325,1.176.627,2.708,1.111,3.755.2.569-.5-.057-1.812-1.315-3.434a19.807,19.807,0,0,0,4.452,1.146c3.033.273,3.813-3.074,3.813-3.074a6.128,6.128,0,0,0,1.776,4.558c3.757,3.743,9.106-10.441,10.059-3.62.321,2.3,1.157,6.866,2.663,6.924a6.126,6.126,0,0,0,4.547-1.807s-1.055,3.628.345,4.886,2.309-.447,3.062.013c-1.362,2.94.522,3.764,2.109,3.97.014.074.029.149.049.221a5.767,5.767,0,0,0-1.8,1.624c-2.044,2.619.637,4.36,3.663,2.506s2.795-1.331,1.477,2.381-1.623,6.809,1.774,7.178,1.1,6.472,0,10.355c7.348-8.5,11.942-20.557,11.56-25.67,3.25-8.767-3.652-18.4-10.064-22.867-7.29-5.078-14.564-4.508-16.674-6.84-3.651-4.033-13.7-6.359-22.507-2.7C244.175,245.3,236.155,272.143,235.965,283.816Z" transform="translate(-205.907 -238.639)"/><path class="g" d="M286.206,299.419a3.473,3.473,0,1,0,3.084,3.549A3.332,3.332,0,0,0,286.206,299.419Z" transform="translate(-211.298 -245.085)"/><path class="r" d="M287.435,299.932a3.337,3.337,0,0,1-.209,1.22l-.856,2.289a3.349,3.349,0,0,1-4.3,1.958h0a3.347,3.347,0,0,1-1.956-4.3l.855-2.289a3.347,3.347,0,0,1,4.15-2.009l.051.011a8.373,8.373,0,0,1,1.736.613A4.752,4.752,0,0,1,289.385,300a4.954,4.954,0,0,1,.315,1.527.71.71,0,0,0,.167.232.537.537,0,0,0,.228.127.666.666,0,0,0,.268.011.658.658,0,0,0,.374-.189.561.561,0,1,1,.829.756,1.792,1.792,0,0,1-1.025.543,1.773,1.773,0,0,1-.733-.035,1.674,1.674,0,0,1-.174-.057.827.827,0,0,0,.113.349.535.535,0,0,0,.187.181.649.649,0,0,0,.254.082v0a.653.653,0,0,0,.412-.084.562.562,0,0,1,.6.952,1.8,1.8,0,0,1-1.132.251l0,0a1.738,1.738,0,0,1-.7-.225l-.009-.005a1.208,1.208,0,0,0,.133.383.89.89,0,0,0,.471.412,1,1,0,0,0,.289.061.563.563,0,1,1-.076,1.122,2.176,2.176,0,0,1-.609-.128,1.965,1.965,0,0,1-.857-.624c-.032.064-.063.129-.1.194a.842.842,0,0,1-1.513-.742,9.7,9.7,0,0,0,.751-2.008,4.18,4.18,0,0,0-.04-2.478A2.645,2.645,0,0,0,287.435,299.932Z" transform="translate(-210.951 -244.767)"/><path class="r" d="M282.521,287.043a1.534,1.534,0,1,0,.209,3.06A10.043,10.043,0,0,1,291,293.819a1.54,1.54,0,1,0,2.448-1.869C289.276,286.475,282.54,287.042,282.521,287.043Z" transform="translate(-211.087 -243.662)"/><path class="r" d="M254.428,287.423a3.323,3.323,0,0,0-.566,1.1l-.691,2.344a3.349,3.349,0,0,0,2.258,4.145h0a3.345,3.345,0,0,0,4.144-2.258l.692-2.344a3.348,3.348,0,0,0-2.111-4.1c-.016-.008-.031-.016-.049-.023a8.429,8.429,0,0,0-1.756-.552,4.757,4.757,0,0,0-3.524.568,4.864,4.864,0,0,0-1.167,1.032.763.763,0,0,1-.274.086.541.541,0,0,1-.259-.036.684.684,0,0,1-.405-.528.562.562,0,0,0-1.119.105,1.8,1.8,0,0,0,.495,1.05,1.774,1.774,0,0,0,.607.413c.056.022.113.042.173.059a.829.829,0,0,1-.3.21.537.537,0,0,1-.259.032.628.628,0,0,1-.253-.086l0,0a.648.648,0,0,1-.279-.313.562.562,0,0,0-1.05.4,1.789,1.789,0,0,0,.753.881l0,0a1.758,1.758,0,0,0,.693.24h.01a1.254,1.254,0,0,1-.336.226.9.9,0,0,1-.623.048,1.062,1.062,0,0,1-.268-.126.562.562,0,1,0-.613.943,2.126,2.126,0,0,0,.563.263,1.979,1.979,0,0,0,1.062.017c-.015.07-.028.14-.042.212a.843.843,0,0,0,1.655.316,9.75,9.75,0,0,1,.606-2.057,4.194,4.194,0,0,1,1.52-1.957A2.682,2.682,0,0,1,254.428,287.423Z" transform="translate(-207.3 -243.502)"/><path class="r" d="M266.146,280.038a1.534,1.534,0,0,1-2.006,2.321,10.049,10.049,0,0,0-8.848-2,1.539,1.539,0,1,1-.835-2.963C261.086,275.526,266.132,280.026,266.146,280.038Z" transform="translate(-207.901 -242.505)"/><path class="v" d="M269.637,305.31c-.59,1.43-2.579,1.965-4.443,1.2s-2.9-2.552-2.31-3.982C262.918,302.443,269.664,305.247,269.637,305.31Z" transform="translate(-208.978 -245.441)"/><path class="v" d="M305.136,311.845a3.626,3.626,0,0,1,3.1-.9c4.785.652,1.263,8.714-4.7,6.35C301.483,316.479,305.136,311.845,305.136,311.845Z" transform="translate(-213.592 -246.403)"/><path class="v" d="M247.939,294.4c2.351,1.315,3.726,3.333,3.067,4.509s-3.1,1.062-5.448-.252-3.726-3.334-3.068-4.51S245.587,293.085,247.939,294.4Z" transform="translate(-206.637 -244.387)"/><path class="v" d="M285.9,309.842c2.625.612,4.5,2.172,4.2,3.483s-2.68,1.879-5.3,1.268-4.5-2.171-4.2-3.484S283.272,309.229,285.9,309.842Z" transform="translate(-211.026 -246.253)"/><path class="z" d="M265.754,252.98c-5.264,2.89-13.193.262-18.169-2.371a38.861,38.861,0,0,0-4.888,6.112l-.02.035c2.327.682,7.572,1.842,10.646,2.325a32.5,32.5,0,0,0,4.862.437,16.238,16.238,0,0,0,6.1-1.112,12.618,12.618,0,0,0,4.694-3.086,21.789,21.789,0,0,0,4.977,1.467c3.558.735,5.335-.946,5.335-.946s.4,2.146,3.534,5.7,9.651,3.559,9.651,3.559.283,1.532,3.088,7.723l.256.564a12.347,12.347,0,0,0,2.171,3.128c2.826,3.074,11.241,7.378,14.372,9.036.419-3.6-.109-5.946-.113-11.033-.968-.411-4.561.065-5.862-.615q-.64-.333-1.33-.72c-5-2.794-9.318-13.415-9.318-13.415s-.829.783-6.786-.768-8.314-8.022-8.314-8.022a17.778,17.778,0,0,1-5.12,1.472c-2.778.326-6.367-1.332-6.367-1.332Z" transform="translate(-206.677 -239.482)"/><path class="u" d="M283.374,355.363c5.142,2.477,14.08,4.762,14.08,4.762s6.465-4.525,9.341,5.178c4.615,15.575-14.218,13.862-23.269-2.72C279.745,355.656,283.374,355.363,283.374,355.363Z" transform="translate(-211.169 -251.508)"/><g transform="translate(63.626 94.175)"><path class="u" d="M288.946,357.315c.083-4.638-2.4-5.62-3.157-9.211-.325-1.53-.251-3.859-1.184-3.666-2.552.531-1.974,3.533-2.168,5.247,0,0-6.211-4.237-8.216-2.244a1.577,1.577,0,0,0-.21,1.618c.145.367.555.53.553.949s-.468,1.253-.437,1.726c.045.721.484,1.42.542,2.152.027.333-.308,1.068-.2,1.541a12.406,12.406,0,0,0,.314,2.141c1.587,3.424,6.895,6.085,10.161,7.455Z" transform="translate(-273.886 -344.427)"/><path class="v" d="M274.653,351.25a.408.408,0,1,1,.323-.75c.965.417,1.838.815,2.6,1.179.985.466,1.781.87,2.364,1.176a.407.407,0,1,1-.381.72c-.565-.3-1.345-.692-2.333-1.161C276.494,352.068,275.635,351.675,274.653,351.25Z" transform="translate(-273.945 -345.121)"/><path class="v" d="M274.506,355.272a.409.409,0,0,1,.325-.751c1.072.465,2.03.906,2.849,1.3s1.469.722,1.973.986a.407.407,0,1,1-.377.722c-.5-.261-1.152-.593-1.95-.975C276.543,356.179,275.6,355.746,274.506,355.272Z" transform="translate(-273.929 -345.582)"/><path class="v" d="M274.864,359.118a.408.408,0,1,1,.323-.749c.852.368,1.631.721,2.329,1.049.853.4,1.577.76,2.148,1.054a.407.407,0,1,1-.372.725c-.558-.286-1.268-.639-2.124-1.041C276.5,359.842,275.728,359.493,274.864,359.118Z" transform="translate(-273.97 -346.024)"/></g><path class="g" d="M292.869,331.7c4.508.975,7.254,1.7,8.749,5.316s2.732,10.851,4.168,10.994,1.654-1.508.647-5.677-2.934-8.625-4.312-9.773-5.929-2.606-9.3-3.18a22.26,22.26,0,0,1-3.354,1.668c.876.154,1.711.307,2.5.466A6.858,6.858,0,0,1,292.869,331.7Z" transform="translate(-212.049 -248.525)"/><path class="t" d="M253.358,276.946a10.576,10.576,0,1,0,7.479,3.1,10.541,10.541,0,0,0-7.479-3.1Zm-8.678,1.9a12.273,12.273,0,1,1-3.6,8.679A12.231,12.231,0,0,1,244.68,278.843Z" transform="translate(-206.494 -242.31)"/><path class="t" d="M285.343,288.96a10.576,10.576,0,1,0,7.479,3.1,10.55,10.55,0,0,0-7.479-3.1Zm-8.679,1.9a12.274,12.274,0,1,1-3.595,8.678A12.235,12.235,0,0,1,276.664,290.858Z" transform="translate(-210.166 -243.69)"/><path class="t" d="M299.179,305.841a.848.848,0,0,1,.134-1.691,39.905,39.905,0,0,1,10.008,2.209.848.848,0,1,1-.6,1.585A38.057,38.057,0,0,0,299.179,305.841Z" transform="translate(-213.074 -245.628)"/><path class="t" d="M266.623,295a.848.848,0,0,1,.14-1.691,11.348,11.348,0,0,1,4.087,1.109,6.523,6.523,0,0,1,3,2.58.847.847,0,0,1-1.6.564,5.033,5.033,0,0,0-2.147-1.626A9.686,9.686,0,0,0,266.623,295Z" transform="translate(-209.337 -244.384)"/><path class="t" d="M235.575,284.77a.848.848,0,0,1-.192-1.685,8.867,8.867,0,0,1,3.8.635,5.919,5.919,0,0,1,2.919,2.009.845.845,0,0,1-1.458.855,4.443,4.443,0,0,0-2.059-1.278A7.117,7.117,0,0,0,235.575,284.77Z" transform="translate(-205.754 -243.207)"/><path class="r" d="M254.332,307.014c2.495,5.146,12.391,8.318,17.534,5.461C268.118,327.272,253.122,324.257,254.332,307.014Z" transform="translate(-208.007 -245.957)"/><path class="aa" d="M269.033,320.3c-3.387,3.85-8.136,3.776-11.231.168C260.85,316.741,265.6,316.552,269.033,320.3Z" transform="translate(-208.414 -247.17)"/><path class="t" d="M252.427,338.771a2.165,2.165,0,0,0-.792-2.957l-.045-.024.045-.025a2.165,2.165,0,0,0-2.165-3.751l-.042.027v-.051a2.165,2.165,0,0,0-4.33,0c0,.018,0,.035,0,.051l-.043-.027a2.165,2.165,0,0,0-2.165,3.751l.044.025-.044.024a2.165,2.165,0,0,0,2.165,3.751l.043-.027c0,.018,0,.034,0,.051a2.165,2.165,0,0,0,4.33,0v-.051l.042.027a2.165,2.165,0,0,0,2.957-.793Zm-4.039-4.931a2.167,2.167,0,0,0,1.126,1.95,2.164,2.164,0,0,0-1.126,1.95,2.164,2.164,0,0,0-2.252,0,2.164,2.164,0,0,0-1.126-1.95,2.167,2.167,0,0,0,1.126-1.95,2.169,2.169,0,0,0,2.252,0Z" transform="translate(-206.577 -248.576)"/><path class="ab" d="M247.662,338.566A2.365,2.365,0,1,0,245.3,336.2,2.369,2.369,0,0,0,247.662,338.566Z" transform="translate(-206.978 -249.036)"/><path class="t" d="M289.284,342.669a2.166,2.166,0,0,0-.793-2.957l-.043-.026.043-.025a2.165,2.165,0,1,0-2.165-3.75c-.013.009-.029.017-.043.027v-.051a2.165,2.165,0,1,0-4.329,0v.051c-.014-.01-.029-.018-.043-.027a2.165,2.165,0,1,0-2.164,3.75c.013.009.029.017.043.025l-.043.026a2.164,2.164,0,1,0,2.164,3.749l.043-.026v.05a2.165,2.165,0,1,0,4.329,0v-.05l.043.026a2.166,2.166,0,0,0,2.958-.791Zm-4.04-4.933a2.17,2.17,0,0,0,1.125,1.95,2.17,2.17,0,0,0-1.125,1.951,2.162,2.162,0,0,0-2.251,0,2.179,2.179,0,0,0-.29-1.134,2.156,2.156,0,0,0-.837-.817,2.15,2.15,0,0,0,.837-.817,2.178,2.178,0,0,0,.29-1.133,2.162,2.162,0,0,0,2.251,0Z" transform="translate(-210.808 -249.023)"/><path class="ab" d="M284.518,342.463a2.366,2.366,0,1,0-2.365-2.365A2.369,2.369,0,0,0,284.518,342.463Z" transform="translate(-211.209 -249.484)"/><g transform="translate(90.274 26.779)"><path class="ac" d="M310.439,272.952a57.928,57.928,0,0,1,6.836,4.158c1.442,1.1,1.97,1.618,1.97,2.333,0,1.6-11.824-2.718-11.858-2.731l.512-.827c14.007,5.429,12.3,3.522,1.584-2.311Z" transform="translate(-304.38 -268.826)"/><path class="t" d="M314.612,277.237a2.166,2.166,0,0,0-.793-2.957l-.045-.025c.016-.008.031-.016.045-.025a2.165,2.165,0,1,0-2.165-3.75l-.042.027v-.051a2.165,2.165,0,0,0-4.33,0v.051l-.043-.027a2.165,2.165,0,1,0-2.164,3.75c.013.009.029.017.043.025l-.043.025a2.165,2.165,0,1,0,2.164,3.751l.043-.027v.051a2.165,2.165,0,0,0,4.33,0V278l.042.027a2.167,2.167,0,0,0,2.958-.793Zm-4.04-4.932a2.171,2.171,0,0,0,1.125,1.95,2.173,2.173,0,0,0-1.125,1.95,2.168,2.168,0,0,0-2.251,0,2.169,2.169,0,0,0-1.128-1.95,2.143,2.143,0,0,0,.837-.817,2.167,2.167,0,0,0,.29-1.133,2.163,2.163,0,0,0,2.251,0Z" transform="translate(-303.99 -268.291)"/><path class="ab" d="M309.846,277.032a2.366,2.366,0,1,0-2.365-2.365A2.369,2.369,0,0,0,309.846,277.032Z" transform="translate(-304.391 -268.751)"/></g></g><g transform="translate(104.261)"><path class="ad" d="M395.638,317.1c21.141,1.13,21.509,6.165,22.36,9.667s3.089,37.494,1.409,45.186-14.1,6.477-14.1,6.477-17.684-20.458-18.171-36.245S395.638,317.1,395.638,317.1Z" transform="translate(-327.52 -243.215)"/><path class="ae" d="M413.577,378.181a23.47,23.47,0,0,1-8.271.829s-17.684-20.458-18.171-36.245a37.758,37.758,0,0,1,5.244-20.592c19.007,1.349,19.382,6.153,20.2,9.533.852,3.5,3.088,37.494,1.409,45.186A7.136,7.136,0,0,1,413.577,378.181Z" transform="translate(-327.52 -243.798)"/><g transform="translate(0 120.474)"><path class="r" d="M418.468,391.714c4.268,10.418,26.081,5.933,27.441,7.858.752,1.065-.961,8.541-3.327,9.542-32.546,13.758-53.883-7.97-56.2-15.442C373.727,373.975,402.349,352.384,418.468,391.714Z" transform="translate(-327.076 -369.731)"/><path class="r" d="M362.86,384.637c-12.182,19.957-15.255,51.073-15.68,53.723s5.13,18.692,6.87,5.689c1.418-10.587,20.41-34.253,28.887-41.122,5.5-5.153,9.813-8.467,13.956-12.729C386.532,390.9,362.86,384.637,362.86,384.637Z" transform="translate(-322.933 -371.442)"/><path class="af" d="M352.572,447.574c-.519,7.17-1.493,9.634-3.98,9.619-2.8-.019-28.921-7.744-28.8-12.338.087-3.293,3.773-7.661,8.524-8.4,5.725-.892,5.339,1.314,7.8,2.171,4.072,1.42,5.54,2.964,6.5,2.839.716-.091.266-1.954,1.547-3.506,1.2-1.453,6.539,1.029,4.72,2.627-3.852,3.382.368,4.266,3.209,4.5C354.329,445.265,352.7,445.8,352.572,447.574Z" transform="translate(-319.791 -377.367)"/><g transform="translate(13.593 59.775)"><path class="g" d="M343.948,441.61a2.639,2.639,0,0,0,1.411.47.343.343,0,0,0,.185-.081l-.256,2.307a.814.814,0,0,1-1.618-.177Z" transform="translate(-336.126 -437.758)"/><path class="g" d="M341.117,440.133c.6.283,1.11.552,1.551.792l-.327,2.946a.814.814,0,0,1-1.618-.177Z" transform="translate(-335.787 -437.588)"/><path class="g" d="M338.246,438.958c.574.2,1.1.406,1.571.607l-.366,3.317a.815.815,0,0,1-1.62-.177Z" transform="translate(-335.455 -437.453)"/><path class="g" d="M335.593,437.258a18.115,18.115,0,0,0,1.513,1.13l-.336,3.027a.814.814,0,0,1-1.618-.177Z" transform="translate(-335.148 -437.258)"/></g><path class="r" d="M347.057,454.42a108.4,108.4,0,0,1-13.8-4.428c-5.121-2.04-9.833-4.444-12.779-6.933a6.414,6.414,0,0,0-.69,2.578c-.121,4.594,26,12.319,28.8,12.338,1.368.009,2.279-.733,2.906-2.6-.555-.1-1.136-.213-1.736-.34C348.9,454.857,347.994,454.65,347.057,454.42Z" transform="translate(-319.791 -378.149)"/><g transform="translate(106.747 25.557)"><path class="af" d="M440.4,412.732c-.344-8.029,4.714-2.644,6.015-4.559.756-1.113-.466-2.787-1.415-4.031-1.121-1.464-1.273-2.062.882-2.267,1.13-.106,1.1.366,2.7-.276,3.617-1.45,6.9-5.293,8.858-1.088,1.984,4.265,8.555,31.849-.512,29.749s-9.894-14.78-9.894-14.78C443.686,416.8,440.743,420.763,440.4,412.732Z" transform="translate(-440.382 -398.602)"/><g transform="translate(6.652 15.727)"><path class="g" d="M448.124,419.3c-.157-.929-.212-1.568-.227-1.734l1.987-1.094a.814.814,0,1,1,.788,1.425Z" transform="translate(-447.897 -416.368)"/><path class="g" d="M448.777,422.26c-.162-.582-.3-1.133-.4-1.639l2.849-1.569a.814.814,0,1,1,.788,1.424Z" transform="translate(-447.952 -416.665)"/><path class="g" d="M449.686,425.043c-.212-.524-.4-1.044-.562-1.55l2.308-1.271a.814.814,0,0,1,.789,1.425Z" transform="translate(-448.038 -417.029)"/><path class="g" d="M450.962,427.715c-.279-.474-.528-.958-.754-1.443l2.331-1.285a.815.815,0,0,1,.788,1.426Z" transform="translate(-448.162 -417.346)"/></g><path class="r" d="M455.278,398.961a94.21,94.21,0,0,1,4.16,18.154c.608,5.052.639,9.88-.436,13.216,8.518,1.272,2.1-25.614.145-29.819C458.157,398.38,456.824,398.316,455.278,398.961Z" transform="translate(-442.092 -398.602)"/></g></g><path class="ag" d="M411.2,331.917c7.274,6.051,12.378,19.073,12.124,22.386-.4,5.2-10.666-.977-20.789.356a23.15,23.15,0,0,0,1.532,11.4c2.441,6.159,7.46,9.061,4.328,11.309s-6.127,6.3-20.985,8.968-28.518-6.063-29.659-8.646,2.379-6.057,2.379-6.057,1.045-15.3,1.124-16.627-4.255,7.8-15.2,2.538c-3.022-1.452,6.215-23.661,13.807-29.382,3.606-2.718,4.439-.345,10.359.085,5.841.423,14.858-2.189,22.874-1.919C400.131,326.563,405.841,327.455,411.2,331.917Z" transform="translate(-322.739 -244.272)"/><path class="r" d="M385.144,337.643c-2.538,3.244-4.091,5.821-5.069,5.613s-4.352-6.726-4.352-6.726Z" transform="translate(-326.213 -245.446)"/><path class="af" d="M361.7,355.2a.847.847,0,0,1-.1-1.691l37.247-2.275a.847.847,0,0,1,.1,1.691Z" transform="translate(-324.499 -247.134)"/><path class="af" d="M361.7,361.021a.847.847,0,0,1-.1-1.692l37.247-2.276a.847.847,0,0,1,.1,1.691Z" transform="translate(-324.499 -247.802)"/><path class="ad" d="M359.785,330.6c-1.446,3.759-2.841,17.338-2.309,27.732.092,1.755,1.389,4.025,2.329,5.815,3,5.7,4.44-.262,4.341-2.6-.389-9.253,1.046-23.4,3.254-29.869.531-1.551,4.661-3.689,4.893-4.005.4-.543-2.031-1.392-4.465-2.153C365.1,324.666,361.229,326.844,359.785,330.6Z" transform="translate(-324.104 -244.161)"/><path class="v" d="M360.878,316.65c.055,2.4,9.549,16.037,11.533,17.576a12.874,12.874,0,0,0,15.661-.461c1.709-1.5,10.354-20.342,10.338-20.377C398.131,312.751,360.766,311.814,360.878,316.65Z" transform="translate(-324.508 -242.729)"/><path class="r" d="M403.691,367.71c.983,1.589,3.031,6.211,7.68,7.067s2.628,2.782.29,2.719-7.329-3.049-11.593-8.771S403.691,367.71,403.691,367.71Z" transform="translate(-328.862 -248.816)"/><path class="af" d="M403.7,347.817c5.394,4.827,13.508,3.452,16.474,4.247.312.084.677.174.76-.026a3.941,3.941,0,0,1,.488-.945s3.929-2.4,6.712.4c1.032,1.038,1.85,2.781,2.445,5.561,2.2,10.274-4.206,11.88-8.244,12.672s-16.36-7.716-17.97-15.173S403.7,347.817,403.7,347.817Z" transform="translate(-329.392 -246.739)"/><path class="ad" d="M397.5,330.9c-1.787,3.813-5.141,16.979-1.669,27.776,1.286,4,7.078,11.764,8.509,6.912.252-.859-.767-2.039-.807-3.865-.206-9.282,1.847-23.532,4.6-30.083.66-1.572,5.541-3.829,5.819-4.153.479-.557-2.779-4.112-5.6-4.811C405.193,321.889,399.288,327.086,397.5,330.9Z" transform="translate(-328.347 -243.846)"/><path class="u" d="M411.04,349.829c.446-4.8-2.046-6-2.556-9.782-.216-1.608.04-4.014-.943-3.885-2.681.351-2.318,3.5-2.65,5.263,0,0-6.1-4.869-8.333-2.961a1.641,1.641,0,0,0-.341,1.66c.12.392.533.592.5,1.026s-.581,1.26-.588,1.753c-.009.75.392,1.508.4,2.27,0,.348-.4,1.083-.325,1.581a12.735,12.735,0,0,0,.159,2.241c1.165,3.1,5.335,5.527,8.308,7.633C408.739,359.512,410.7,350.381,411.04,349.829Z" transform="translate(-328.555 -245.403)"/><path class="af" d="M396.692,321.659c1.153.835,1.658,4.671.76,6.574l-6.9,14.639s-.777-5.771-2.88-5.725-5.247,3.132-5.247,3.132,1.48-3.475,3-4.884S396.692,321.659,396.692,321.659Z" transform="translate(-326.982 -243.739)"/><path class="af" d="M367.838,321.848c-2.818,1.713,1.146,17.473,1.751,20.463,0,0,1.238-5.688,3.332-5.474s4.979,3.544,4.979,3.544-1.2-3.583-2.6-5.109S367.838,321.848,367.838,321.848Z" transform="translate(-325.192 -243.76)"/><path class="u" d="M410.518,285.745a6.968,6.968,0,0,1,4.894-3.809c9-2.224,8.427,14.649-3.888,14.66C407.287,296.6,410.518,285.745,410.518,285.745Z" transform="translate(-330.072 -239.155)"/><path class="u" d="M341.566,302.981a6.96,6.96,0,0,0-5.761-2.3c-9.26.366-4.018,16.415,7.815,13C347.692,312.507,341.566,302.981,341.566,302.981Z" transform="translate(-321.086 -241.33)"/><path class="u" d="M397.747,270.244c5.2,14.839,14.916,30.477-5.709,44.714-17.158,11.843-36.915,7.583-46.658-2.729-3.234-3.426-5.3-11.619-7-19.607-1.9-8.971-3.105-17.834-.462-22.4C340.976,264.952,386.513,243.657,397.747,270.244Z" transform="translate(-321.697 -236.334)"/><path class="ah" d="M397.747,270.244c1.431,4.081,3.2,8.223,4.591,12.379-8.46-8.905-12.765-18.531-17.8-17.542-7.123,1.4-18.141,9.173-41.436,12.295-1.914.256,2.671.246.158,9A106.517,106.517,0,0,0,340.195,299s-1-3.119-2.043-7.479c-1.765-8.586-2.766-16.917-.232-21.293C340.976,264.952,386.513,243.657,397.747,270.244Z" transform="translate(-321.697 -236.334)"/><path class="ai" d="M337.314,272.087c2.773,5.89,3.759,8.9,3.143,16.262S340,303.212,340,303.212s-8.574-15.9-8.662-23.568S337.314,272.087,337.314,272.087Z" transform="translate(-321.117 -238.048)"/><path class="ai" d="M389.12,249.076c15.365,8.71,17.891,7.435,13.582,34.447-.214,1.334-.929-3.036-4.9-8.924s-12.42-16.421-12.42-16.421c-.068-.125-14.808,12.65-46.652,13.012-10.055.115-11.825-4.268-10.637-9C335.295,233.461,380.588,221.8,389.12,249.076Z" transform="translate(-320.707 -233.633)"/><path class="g" d="M356.911,292.006c1.724-.6,3.735.657,4.492,2.817s-.024,4.4-1.746,5.007-3.734-.657-4.492-2.818S355.188,292.61,356.911,292.006Z" transform="translate(-323.819 -240.317)"/><path class="r" d="M390.778,275.757a1.393,1.393,0,1,1-.974,2.61,9.12,9.12,0,0,0-8.163,1.095,1.4,1.4,0,0,1-1.65-2.259A12.057,12.057,0,0,1,390.778,275.757Z" transform="translate(-326.637 -238.391)"/><path class="r" d="M349.912,283.45a1.393,1.393,0,1,0,1.834,2.1,9.119,9.119,0,0,1,8.023-1.864,1.4,1.4,0,1,0,.742-2.7A12.051,12.051,0,0,0,349.912,283.45Z" transform="translate(-323.195 -239.024)"/><path class="r" d="M358.731,291.929h0a3.041,3.041,0,0,0-2.329,3.6l.466,2.171a3.039,3.039,0,0,0,3.6,2.329h0a3.041,3.041,0,0,0,2.329-3.6l-.466-2.17A3.038,3.038,0,0,0,358.731,291.929Z" transform="translate(-323.987 -240.318)"/><path class="r" d="M352.823,294.78a.764.764,0,1,0,1.371.675,8.812,8.812,0,0,1,1.029-1.653,3.8,3.8,0,0,1,1.8-1.345,2.838,2.838,0,0,1,2.108.261,6.137,6.137,0,0,1,1.121.731c.328.266.842.483,1.107.154.589-.731-.588-2.262-1.109-2.518-2.035-1.2-4.732-.1-6.225,1.756A10.405,10.405,0,0,0,352.823,294.78Z" transform="translate(-323.574 -240.171)"/><path class="v" d="M371.085,305.07c.294,1.579,2.2,2.548,4.26,2.165s3.491-1.974,3.2-3.552C378.524,303.593,371.071,305,371.085,305.07Z" transform="translate(-325.68 -241.674)"/><path class="v" d="M412.766,287.54a4.016,4.016,0,0,1,2.822-2.194c5.185-1.282,4.854,8.441-2.242,8.447C410.9,293.8,412.766,287.54,412.766,287.54Z" transform="translate(-330.387 -239.556)"/><path class="v" d="M338.876,305.325a4.013,4.013,0,0,0-3.574.049c-4.849,2.237,1.484,9.625,7.028,5.2C344.239,309.045,338.876,305.325,338.876,305.325Z" transform="translate(-321.374 -241.817)"/><path class="v" d="M398.051,301.9c-2.673.823-4.506,2.575-4.094,3.912s2.913,1.753,5.586.929,4.507-2.574,4.1-3.912S400.725,301.076,398.051,301.9Z" transform="translate(-328.299 -241.422)"/><path class="v" d="M355.618,311.214c-2.8.051-5.046,1.226-5.019,2.625s2.313,2.491,5.11,2.44,5.043-1.226,5.019-2.625S358.415,311.163,355.618,311.214Z" transform="translate(-323.328 -242.539)"/><path class="v" d="M397.141,341.586a.425.425,0,1,0-.395.752c.986.515,1.843.987,2.578,1.4.988.561,1.764,1.031,2.325,1.382a.423.423,0,1,0,.45-.716c-.577-.361-1.371-.84-2.355-1.4C398.979,342.573,398.107,342.093,397.141,341.586Z" transform="translate(-328.6 -246.021)"/><path class="v" d="M396.678,345.739a.424.424,0,0,0-.395.751c1.1.576,2.039,1.1,2.822,1.547s1.446.852,1.943,1.161a.424.424,0,0,0,.446-.721c-.5-.312-1.16-.709-1.967-1.174S397.754,346.3,396.678,345.739Z" transform="translate(-328.547 -246.497)"/><path class="v" d="M396.749,349.749a.424.424,0,1,0-.392.752q1.3.682,2.306,1.253c.854.483,1.561.9,2.118,1.243a.423.423,0,0,0,.441-.721c-.571-.35-1.29-.776-2.144-1.259C398.383,350.624,397.6,350.2,396.749,349.749Z" transform="translate(-328.555 -246.958)"/><path class="g" d="M389.433,286.612a3.606,3.606,0,1,1-1.93,4.485A3.461,3.461,0,0,1,389.433,286.612Z" transform="translate(-327.54 -239.695)"/><path class="g" d="M372.742,301.7a3.206,3.206,0,0,0-.411-2.456c-.436-.557-.955,1.218-.732,2.2C371.736,302.053,372.435,302.687,372.742,301.7Z" transform="translate(-325.733 -241.154)"/><path class="r" d="M394.336,286.842a.765.765,0,1,1-1.044,1.118,8.949,8.949,0,0,0-1.546-1.184,3.805,3.805,0,0,0-2.163-.621,2.844,2.844,0,0,0-1.879.991,6.05,6.05,0,0,0-.788,1.08c-.215.365-.618.75-.983.535-.809-.475-.251-2.323.147-2.747,1.478-1.843,4.391-1.766,6.444-.559A10.31,10.31,0,0,1,394.336,286.842Z" transform="translate(-327.337 -239.482)"/><path class="r" d="M388.2,286.3h0a3.041,3.041,0,0,1,3.451,2.543l.334,2.194a3.042,3.042,0,0,1-2.543,3.451h0a3.041,3.041,0,0,1-3.453-2.543l-.332-2.193A3.041,3.041,0,0,1,388.2,286.3Z" transform="translate(-327.348 -239.675)"/><path class="af" d="M398.065,254.056c9.556-2.461,12.572-8.488,8.277-7.707s-4.315,1.313-4.315,1.313,4.723-9.034,1.179-10.628-9.681,13.393-9.974,14.183S398.065,254.056,398.065,254.056Z" transform="translate(-328.221 -234.01)"/><path class="ai" d="M331.062,271.962c-4.21,1.25-5.346,5.287-3.4,7.852l1.947,2.565c-2.121.775-1.771,3.473-.126,5.558.828,1.048,6.473,7.529,6.242,5.907l-.152-1.068s1.606-9.482.456-14.016A11.945,11.945,0,0,0,331.062,271.962Z" transform="translate(-320.589 -238.033)"/><path class="af" d="M387.856,246.375a88.04,88.04,0,0,1-34.775,13.22c-9.516,1.347-19.072,1.538-23.4-.628a35.13,35.13,0,0,1,6.131-9.931c20.846,8.617,41.981-1.191,49.176-6.953A20.887,20.887,0,0,1,387.856,246.375Z" transform="translate(-320.926 -234.603)"/><path class="f" d="M371.016,286.978q-.052-.5-.087-1.008v-.024a5.65,5.65,0,0,1,.118-2.276,2.315,2.315,0,0,1,.311-.546,3.538,3.538,0,0,1,1.937-1.1c.221-.073.444-.144.664-.222,1.089-.381,2.2-.707,3.316-1,1.208-.318,2.427-.6,3.651-.852q1.927-.4,3.873-.7a54.172,54.172,0,0,1,5.77-.636,10.037,10.037,0,0,1,3.474.25,2.632,2.632,0,0,1,1.128,1.317l6.959,2.325a1.5,1.5,0,1,1-.945,2.837l-5.146-1.718a26.773,26.773,0,0,1,.183,3.921c-.013.56-.044,1.12-.1,1.677a11.878,11.878,0,0,1-7.028,9.828,12.908,12.908,0,0,1-5.545,1.161,12.109,12.109,0,0,1-5.6-1.461,13.433,13.433,0,0,1-6.4-8.763,8,8,0,0,0-3.6.687,16.826,16.826,0,0,1,.453,3.62,11.811,11.811,0,0,1-5.71,10.238,13.63,13.63,0,0,1-5.658,1.983,12.87,12.87,0,0,1-6.071-.737,12.465,12.465,0,0,1-5.134-3.686,16.378,16.378,0,0,1-3.165-6.331l-4.486,3.742a1.5,1.5,0,1,1-1.914-2.3l5.91-4.93.019-.015a3.276,3.276,0,0,1,1.9-2.637c1.125-.567,2.3-1.063,3.472-1.518,1.3-.5,2.625-.959,3.955-1.38q1.6-.507,3.219-.949a56.971,56.971,0,0,1,6.037-1.345,20.557,20.557,0,0,1,2.232-.255,4.481,4.481,0,0,1,1.471.109,3.431,3.431,0,0,1,1.428,1.337,11.874,11.874,0,0,1,1.146,2.191,11.208,11.208,0,0,1,3.961-.828Zm-7.537.123a4.074,4.074,0,0,0-.805.019c-.607.058-1.219.165-1.817.278-1.787.336-3.577.784-5.332,1.263q-1.439.393-2.864.839c-1.3.407-2.6.849-3.876,1.338a36.106,36.106,0,0,0-3.343,1.453.454.454,0,0,0-.289.4,5.906,5.906,0,0,0,.232,1.594c.853,3.762,2.89,7.263,6.644,8.7a9.875,9.875,0,0,0,4.661.559,10.658,10.658,0,0,0,4.415-1.548,8.856,8.856,0,0,0,4.3-7.673,15.33,15.33,0,0,0-.842-4.618c-.206-.611-.431-1.228-.689-1.819a5.208,5.208,0,0,0-.4-.776Zm10.361-2.112.005.04c.031.241.052.484.067.727l0,.023a15.508,15.508,0,0,0,1.807,6.66,9.4,9.4,0,0,0,3.659,3.68,9.1,9.1,0,0,0,4.217,1.092,9.87,9.87,0,0,0,4.254-.889,8.918,8.918,0,0,0,5.287-7.384,23.521,23.521,0,0,0-.114-5.258c-.069-.5-.14-1-.227-1.5a1.526,1.526,0,0,1-.22-.644,5.439,5.439,0,0,0-.566-.032c-.562-.005-1.137.03-1.7.073-1.686.133-3.386.366-5.055.629q-1.774.279-3.536.637c-1.2.244-2.389.515-3.572.824-1.077.281-2.152.594-3.2.962-.238.083-.479.166-.719.246C374.1,284.915,373.973,284.954,373.841,284.989Z" transform="translate(-321.621 -238.792)"/><path class="aj" d="M366.1,314.789a.729.729,0,0,1-.347-.829.607.607,0,0,1,.894-.341c2.994,1.662,6.931,1.8,10.224,1.093,3.105-.665,6.546-2.285,8.306-5.046a.623.623,0,0,1,.945-.107.7.7,0,0,1,.159.895c-1.939,3.041-5.633,4.835-9.061,5.569A16.483,16.483,0,0,1,366.1,314.789Z" transform="translate(-325.065 -242.33)"/><path class="af" d="M353.962,347.008c-1.9,2.241-9.191,9.9-10,13.459-.882,3.881.892,8.48,4.212,10.189,4.616,2.376,10.365-2.74,9.882-11.114C357.847,355.889,358.6,351.407,353.962,347.008Z" transform="translate(-322.54 -246.649)"/><path class="u" d="M358.35,339l-1.143,2.857s3.962-2.065,5.014-.8c.766.92.475,5.876.02,9.314-.009.075-.143.243-.095.3a2.209,2.209,0,0,1-.121,2.593c-.486.827-2,1.631-3.679,2.309-7.967,3.212-6.581-4.729-5.645-9.936a9.312,9.312,0,0,1,2.928-5.538C357.082,338.775,359.048,337.249,358.35,339Z" transform="translate(-323.486 -245.639)"/><path class="v" d="M363.281,343.855a.407.407,0,1,1,.28.765c-1.127.418-2.13.817-2.986,1.173s-1.529.656-2.04.891a.408.408,0,1,1-.338-.743c.523-.24,1.217-.549,2.064-.9S362.106,344.29,363.281,343.855Z" transform="translate(-324.173 -246.284)"/><path class="v" d="M363.23,347.877a.408.408,0,0,1,.284.765c-1.084.4-2.053.789-2.884,1.135s-1.492.638-2,.869a.408.408,0,0,1-.337-.743c.524-.239,1.2-.54,2.023-.882S362.1,348.3,363.23,347.877Z" transform="translate(-324.184 -246.746)"/><path class="v" d="M362.717,351.7a.407.407,0,1,1,.283.764c-.86.319-1.649.629-2.358.916-.876.357-1.6.671-2.177.928a.408.408,0,1,1-.33-.745c.59-.264,1.328-.583,2.2-.939C361.03,352.342,361.823,352.033,362.717,351.7Z" transform="translate(-324.166 -247.184)"/></g><path class="q" d="M444.869,447.989c11.012,0,19.938,2.111,19.938,4.716s-8.926,4.717-19.938,4.717-19.936-2.112-19.936-4.717S433.859,447.989,444.869,447.989Z" transform="translate(-227.6 -258.241)"/></g><path class="a" d="M445.527,185.581a8.839,8.839,0,0,1,13.2,5.09,5.717,5.717,0,0,1,7.2,5.517c0,.157-.005.312-.018.466a3.658,3.658,0,0,1,.68-.062,3.724,3.724,0,1,1,0,7.449H366.38a4.914,4.914,0,1,1,3.427-8.434,2.587,2.587,0,0,1,1.914-1.063,5.241,5.241,0,0,1,5.235-5.039,5.367,5.367,0,0,1,.858.071,10,10,0,0,1,17.266-4.588,8.213,8.213,0,0,1,6.9-3.756,8.315,8.315,0,0,1,1.345.109,15.7,15.7,0,0,1,30.467-1.045,10.153,10.153,0,0,1,11.734,5.286Z" transform="translate(-69.352 -165.567)"/><g transform="translate(76.106)"><path class="a" d="M328.374,72.616a1.078,1.078,0,0,1,2.156,0v3.755a1.078,1.078,0,0,1-2.156,0V72.616Zm-.916,4.671h-3.753a1.078,1.078,0,1,0,0,2.155h3.753a1.078,1.078,0,1,0,0-2.155Zm.916,3.072a1.078,1.078,0,0,1,2.156,0v3.755a1.078,1.078,0,0,1-2.156,0V80.359Zm6.828-3.072h-3.755a1.078,1.078,0,0,0,0,2.155H335.2a1.078,1.078,0,0,0,0-2.155Z" transform="translate(-322.626 -17.188)"/><path class="a" d="M305.543,106.145a.755.755,0,1,1,1.51,0v2.627a.755.755,0,1,1-1.51,0v-2.627Zm-.641,3.27h-2.628a.754.754,0,0,0,0,1.508H304.9a.754.754,0,0,0,0-1.508Zm.641,2.15a.755.755,0,0,1,1.51,0v2.629a.755.755,0,0,1-1.51,0v-2.629Zm4.779-2.15h-2.628a.754.754,0,0,0,0,1.508h2.628a.754.754,0,1,0,0-1.508Z" transform="translate(-245.686 -60.597)"/><path class="a" d="M365.942,165.893a.755.755,0,0,1,1.509,0v2.629a.755.755,0,0,1-1.509,0v-2.629Zm-.642,3.27h-2.627a.754.754,0,1,0,0,1.508H365.3a.754.754,0,0,0,0-1.508Zm.642,2.151a.755.755,0,1,1,1.509,0v2.627a.755.755,0,1,1-1.509,0v-2.627Zm4.778-2.151h-2.627a.754.754,0,1,0,0,1.508h2.627a.754.754,0,0,0,0-1.508Z" transform="translate(-145.51 -165.139)"/></g></g></g></svg>