<svg xmlns="http://www.w3.org/2000/svg" width="16" height="16" viewBox="0 0 16 16"><defs><style>.a{fill:#1f8cd9;}</style></defs><path class="a" d="M10.5,2.5a8,8,0,1,0,8,8A8.007,8.007,0,0,0,10.5,2.5Zm1.718,4.16a9.586,9.586,0,0,1-1.718.152A9.586,9.586,0,0,1,8.782,6.66C9.22,4.673,9.944,3.494,10.5,3.494S11.78,4.673,12.218,6.66ZM12.2,3.713A6.957,6.957,0,0,1,15.384,5.5a8.04,8.04,0,0,1-2.189.943A9.348,9.348,0,0,0,12.2,3.713ZM8.412,9.995a16.417,16.417,0,0,1,.2-2.358,11.76,11.76,0,0,0,1.9.168,11.932,11.932,0,0,0,1.9-.168,23.282,23.282,0,0,1,.2,2.358Zm4.177,1.011a19.436,19.436,0,0,1-.185,2.358,11.76,11.76,0,0,0-1.9-.168,11.932,11.932,0,0,0-1.9.168,19.436,19.436,0,0,1-.185-2.358ZM7.805,6.441A8.04,8.04,0,0,1,5.616,5.5,7.113,7.113,0,0,1,8.8,3.713,9.348,9.348,0,0,0,7.805,6.441Zm-.168.994a18.331,18.331,0,0,0-.219,2.577H3.544A7.041,7.041,0,0,1,4.976,6.256,8.931,8.931,0,0,0,7.637,7.435ZM7.4,11.005a21.549,21.549,0,0,0,.219,2.577,8.988,8.988,0,0,0-2.678,1.179,7.023,7.023,0,0,1-1.415-3.756Zm.4,3.554A9.169,9.169,0,0,0,8.8,17.287,6.957,6.957,0,0,1,5.616,15.5,8.04,8.04,0,0,1,7.805,14.559Zm.977-.219a9.81,9.81,0,0,1,3.436,0c-.438,1.987-1.162,3.166-1.718,3.166S9.22,16.327,8.782,14.34Zm4.413.219a7.582,7.582,0,0,1,2.189.96A7.112,7.112,0,0,1,12.2,17.3,9.655,9.655,0,0,0,13.195,14.559Zm.168-.994a18.331,18.331,0,0,0,.219-2.577h3.874a7.041,7.041,0,0,1-1.432,3.756A9.127,9.127,0,0,0,13.363,13.565ZM13.6,9.995a21.549,21.549,0,0,0-.219-2.577,8.988,8.988,0,0,0,2.678-1.179,6.989,6.989,0,0,1,1.432,3.756Z" transform="translate(-2.5 -2.5)"/></svg>